<svg width="152" height="152" viewBox="0 0 152 152" fill="none" xmlns="http://www.w3.org/2000/svg">
<rect width="152" height="152" rx="76" fill="#D8E4E8"/>
<g clip-path="url(#clip0_154_2556)">
<path d="M59.3316 107.98L56.7261 107.528L52.9697 106.294L47.157 100.34C46.3417 99.5073 45.1353 99.286 44.1134 99.6857L42.2262 97.7534C41.1433 96.6427 39.3615 96.6192 38.248 97.7009L38.2078 97.7396C37.9374 98.0038 37.7322 98.3081 37.5921 98.6345C36.6146 98.5792 35.6273 98.9914 34.9867 99.8268L34.9506 99.8752C33.9259 101.213 34.1825 103.124 35.5219 104.145L45.0341 111.397C45.0632 111.419 45.0965 111.431 45.1256 111.452C45.213 111.516 45.3087 111.571 45.4043 111.625C45.4889 111.672 45.5735 111.719 45.6623 111.758C45.7496 111.795 45.837 111.824 45.9271 111.855C46.0339 111.891 46.1407 111.924 46.2502 111.947C46.2849 111.954 46.3154 111.97 46.35 111.975L58.1349 114.075C59.7961 114.371 61.3824 113.268 61.6791 111.611L61.6902 111.55C61.9855 109.895 60.9913 108.276 59.3316 107.98Z" fill="#F5C08C"/>
<path d="M89.7928 99.4921L82.2482 98.3883C80.4332 98.1227 78.5848 98.1877 76.7933 98.5792L72.0954 99.6069C71.5158 99.7341 70.9182 99.7646 70.3303 99.6982L59.4966 98.4754C57.8215 98.279 56.3032 99.4741 56.1077 101.145L56.0994 101.206C55.9025 102.877 57.1019 104.391 58.777 104.588L66.0567 105.442L58.9849 107.956L47.8324 108.054L37.7946 103.079C36.2846 102.329 34.4515 102.944 33.7013 104.451L33.6722 104.506C32.922 106.012 33.5377 107.842 35.0491 108.59C35.0491 108.59 47.1376 114.223 47.1723 114.223C47.1723 114.223 56.1188 115.754 58.9517 115.985C59.4855 116.028 60.2274 115.964 60.9886 115.947C64.1321 115.88 72.9149 115.455 79.9561 113.022L89.7942 111.354V99.4921H89.7928Z" fill="#FFCF9F"/>
<path d="M95.869 96.878L85.9311 96.9395L86.0379 114.121L95.9758 114.06L95.869 96.878Z" fill="#EDEDED"/>
<path d="M116 95.8545H93.8236V115.174H116V95.8545Z" fill="#61554E"/>
<path d="M103.178 99.0107C102.99 98.4561 103.291 97.8544 103.847 97.6691C104.405 97.4837 105.006 97.7838 105.194 98.3385C105.379 98.8931 105.079 99.4948 104.523 99.6802C103.965 99.8669 103.363 99.5667 103.178 99.0107Z" fill="#EDEDED"/>
<path d="M99.7306 99.0107C99.5434 98.4561 99.8443 97.8544 100.4 97.6691C100.958 97.4837 101.559 97.7838 101.747 98.3385C101.932 98.8931 101.632 99.4948 101.076 99.6802C100.52 99.8669 99.9164 99.5667 99.7306 99.0107Z" fill="#EDEDED"/>
<path d="M96.3126 99.0121C96.1268 98.4561 96.4276 97.8558 96.9837 97.6691C97.5397 97.4837 98.1429 97.7838 98.3301 98.3385C98.5159 98.8931 98.215 99.4948 97.6589 99.6802C97.1015 99.8669 96.4984 99.5667 96.3126 99.0121Z" fill="#EDEDED"/>
<path d="M69.6689 47.8221L64.96 49.6271C62.9355 50.4044 61.8179 52.6313 62.4641 54.6037L62.489 54.6756C63.1352 56.648 65.3011 57.6162 67.3255 56.8403L72.0331 55.0352C76.0335 53.3298 74.4486 46.7266 69.6689 47.8221Z" fill="#DEAA78"/>
<path d="M68.9561 41.7639L65.2399 43.3933C63.6426 44.0945 62.873 46.0627 63.5206 47.7903L63.5455 47.8539C64.1945 49.5815 66.0137 50.4142 67.6125 49.7129L71.3286 48.0835C75.0337 46.5565 73.0938 40.4029 68.9561 41.7639Z" fill="#DEAA78"/>
<path d="M70.4551 54.9398L63.4734 57.9135C61.449 58.6895 61.0413 59.7628 61.6875 61.7352L61.0025 62.9621C61.6486 64.9331 63.8132 65.9027 65.839 65.1267L72.8206 62.1543C76.8196 60.4475 75.2361 53.8443 70.4551 54.9398Z" fill="#E6B07C"/>
<path d="M67.4682 63.0877C66.7389 63.096 64.5425 63.3989 64.5425 63.3989C62.4043 63.6299 60.8263 65.4875 61.0177 67.547L61.0246 67.6217C61.2174 69.6812 58.1474 71.6411 60.2855 71.4088L68.1685 70.6204C73.995 69.6425 72.8816 62.3007 67.4682 63.0877Z" fill="#F5C08C"/>
<path d="M47.7226 55.9912L55.2866 68.9555L56.6358 57.5749L47.7226 55.9912Z" fill="#F5C08C"/>
<path fill-rule="evenodd" clip-rule="evenodd" d="M84.5404 89.5524C67.026 97.3285 49.513 81.7763 32 89.5524C32 82.732 32 75.9103 32 69.09C49.513 61.3139 67.026 76.8661 84.5404 69.09C84.5404 75.9117 84.5404 82.732 84.5404 89.5524Z" fill="#93BA77"/>
<path fill-rule="evenodd" clip-rule="evenodd" d="M82.7696 71.5658C82.7696 77.2091 82.7696 82.8524 82.7696 88.4956C66.4367 94.3298 50.1037 81.2438 33.7721 87.0779C33.7721 81.4346 33.7721 75.7914 33.7721 70.1481C50.1037 64.3139 66.4367 77.4 82.7696 71.5658ZM84.5404 69.09C67.026 76.8661 49.513 61.3139 32 69.09C32 75.9117 32 82.732 32 89.5524C49.513 81.7763 67.026 97.3285 84.5404 89.5524C84.5404 82.732 84.5404 75.9117 84.5404 69.09Z" fill="#6B8756"/>
<path fill-rule="evenodd" clip-rule="evenodd" d="M63.5278 80.4429C63.5292 84.4526 61.1747 87.2286 58.2711 86.573C55.3661 85.9174 53.013 82.2009 53.013 78.2022C53.013 74.1924 55.3661 71.4164 58.2711 72.072C61.1747 72.7276 63.5278 76.4428 63.5278 80.4429Z" fill="#6B8756"/>
<path d="M43.2151 81.4625C42.8268 81.4611 42.4788 81.4196 42.1709 81.3338C41.8617 81.2467 41.5983 81.1388 41.3806 81.006C41.1629 80.8732 40.9965 80.7335 40.8814 80.5856C40.7649 80.4362 40.7081 80.2965 40.7081 80.1637C40.7081 80.0392 40.7552 79.9092 40.8509 79.775C40.9438 79.6395 41.0506 79.5689 41.167 79.562C41.2488 79.5565 41.3376 79.6021 41.4319 79.6975C41.5262 79.7916 41.6468 79.8967 41.7952 80.0115C41.9435 80.1263 42.1293 80.2315 42.3512 80.331C42.5745 80.4292 42.8615 80.4777 43.2164 80.4777C43.2164 79.3891 43.2164 78.302 43.2164 77.2134C42.9447 77.1138 42.6701 77.0115 42.3942 76.9064C42.1183 76.8012 41.8728 76.6698 41.6593 76.5052C41.4458 76.342 41.271 76.1359 41.1351 75.8856C40.9978 75.6352 40.9299 75.3143 40.9299 74.9201C40.9299 74.5342 40.9965 74.2023 41.1282 73.9284C41.2613 73.6532 41.4347 73.4236 41.6538 73.241C41.8715 73.0584 42.1169 72.9201 42.3873 72.8288C42.659 72.7375 42.9364 72.6794 43.2164 72.6545C43.2164 72.5314 43.2164 72.4083 43.2164 72.2852C43.2151 72.2188 43.247 72.1594 43.308 72.1068C43.369 72.0542 43.4466 72.028 43.5354 72.0293C43.6186 72.0307 43.6921 72.0584 43.7586 72.1137C43.8252 72.1691 43.8571 72.2299 43.8571 72.2963C43.8571 72.4125 43.8571 72.5287 43.8571 72.6448C44.0789 72.649 44.305 72.6767 44.5352 72.7278C44.7667 72.7776 44.9761 72.8413 45.1646 72.9187C45.3546 72.9962 45.5085 73.0875 45.6278 73.1954C45.7484 73.3032 45.8067 73.4194 45.8067 73.5425C45.8067 73.6407 45.7692 73.7583 45.6902 73.8938C45.6111 74.0294 45.5016 74.0916 45.3629 74.0819C45.2964 74.0778 45.2243 74.0529 45.148 74.0073C45.069 73.9616 44.9705 73.9077 44.8513 73.844C44.732 73.7804 44.5906 73.7237 44.4311 73.6725C44.2703 73.6214 44.0789 73.584 43.8571 73.5633C43.8571 74.4997 43.8571 75.436 43.8571 76.3711C44.1191 76.4748 44.3812 76.5951 44.6405 76.7293C44.8984 76.8635 45.1314 77.0336 45.338 77.2397C45.5432 77.4458 45.711 77.6975 45.8372 77.9949C45.9661 78.2923 46.0299 78.6505 46.0285 79.0696C46.0285 79.8262 45.8261 80.3905 45.424 80.7667C45.0205 81.1443 44.4977 81.3643 43.8557 81.4403C43.8557 81.587 43.8557 81.7336 43.8557 81.8802C43.8557 81.9452 43.8224 82.0033 43.7573 82.0558C43.6907 82.107 43.6158 82.1333 43.534 82.1319C43.4452 82.1305 43.3676 82.1043 43.3066 82.0489C43.2442 81.995 43.2137 81.9355 43.2151 81.8705C43.2151 81.7336 43.2151 81.598 43.2151 81.4625ZM41.9172 74.7694C41.9172 74.9824 41.9505 75.1622 42.0226 75.3074C42.0919 75.4527 42.189 75.5758 42.3124 75.6753C42.4358 75.7749 42.5786 75.8634 42.7436 75.9395C42.9072 76.0156 43.0806 76.0875 43.2622 76.1539C43.2622 75.2922 43.2622 74.4291 43.2622 73.5674C43.0723 73.5826 42.8976 73.6186 42.7367 73.6739C42.5772 73.7292 42.433 73.8053 42.311 73.9021C42.1876 73.999 42.0905 74.1193 42.0212 74.2618C41.9519 74.4028 41.9172 74.573 41.9172 74.7694ZM45.0413 79.1C45.0413 78.869 45.0093 78.6671 44.9428 78.4914C44.8762 78.3158 44.7889 78.1636 44.678 78.0364C44.567 77.9078 44.4367 77.7985 44.2897 77.7072C44.1413 77.6159 43.9791 77.5315 43.8071 77.4541C43.8071 78.4596 43.8071 79.4652 43.8071 80.4721C44.2023 80.414 44.5074 80.2771 44.721 80.0517C44.9345 79.8276 45.0413 79.5108 45.0413 79.1Z" fill="#F6F6F6"/>
<path d="M73.0201 85.9493C72.6333 85.9451 72.2838 85.887 71.976 85.7791C71.6668 85.6713 71.4034 85.5371 71.1857 85.378C70.968 85.2204 70.8015 85.0585 70.6864 84.8926C70.57 84.7266 70.5131 84.5772 70.5131 84.4458C70.5131 84.3227 70.5603 84.1996 70.6545 84.0779C70.7474 83.9575 70.8543 83.9008 70.9707 83.9077C71.0539 83.9133 71.1413 83.9686 71.2355 84.0751C71.3298 84.1802 71.4505 84.2978 71.5988 84.4264C71.7472 84.5537 71.933 84.6754 72.1549 84.7874C72.3767 84.8995 72.6652 84.9603 73.0201 84.9645C73.0201 83.8759 73.0201 82.7874 73.0201 81.7002C72.747 81.5993 72.4738 81.4872 72.1979 81.3669C71.9233 81.2465 71.6765 81.093 71.463 80.9091C71.2494 80.7251 71.0747 80.4983 70.9388 80.2299C70.8029 79.9616 70.735 79.6296 70.735 79.2368C70.735 78.8509 70.8015 78.5287 70.9319 78.2714C71.0636 78.0127 71.2397 77.8053 71.4574 77.6434C71.6751 77.483 71.9205 77.3654 72.1909 77.288C72.4627 77.2105 72.7401 77.1621 73.0201 77.1413C73.0201 77.0182 73.0201 76.8951 73.0201 76.772C73.0201 76.7057 73.0492 76.6476 73.1116 76.5936C73.1726 76.5411 73.2503 76.5148 73.339 76.5162C73.4209 76.5162 73.4957 76.5424 73.5623 76.5964C73.6289 76.6503 73.6607 76.7098 73.6607 76.7762C73.6607 76.8924 73.6607 77.0086 73.6607 77.1248C73.8826 77.1234 74.1086 77.14 74.3388 77.1759C74.5704 77.2105 74.7798 77.2561 74.9683 77.3128C75.1583 77.3709 75.3122 77.4443 75.4315 77.5355C75.5521 77.6268 75.6117 77.7347 75.6117 77.8578C75.6103 77.956 75.5729 78.0791 75.4939 78.2244C75.4134 78.3696 75.3067 78.4457 75.1666 78.4526C75.1001 78.4567 75.0279 78.4401 74.9517 78.4014C74.8726 78.3654 74.7742 78.3184 74.655 78.2659C74.5357 78.2133 74.3956 78.1663 74.2348 78.1234C74.0739 78.0833 73.8826 78.0556 73.6607 78.0404C73.6607 78.9768 73.6607 79.9132 73.6607 80.8482C73.9228 80.945 74.1849 81.0515 74.4442 81.1677C74.7021 81.2825 74.9351 81.4305 75.1417 81.6131C75.3469 81.7957 75.516 82.0253 75.6408 82.3047C75.7698 82.5827 75.8322 82.9312 75.8322 83.3503C75.8336 84.1069 75.6311 84.7044 75.2276 85.1291C74.8241 85.5537 74.3 85.822 73.6594 85.9175C73.6594 86.0627 73.6594 86.2107 73.6594 86.3559C73.6594 86.4209 73.6275 86.4804 73.5609 86.5344C73.4944 86.5869 73.4195 86.6132 73.3377 86.6132C73.2476 86.6132 73.1727 86.5855 73.1103 86.5316C73.0479 86.4776 73.0188 86.4182 73.0188 86.3532C73.0201 86.2204 73.0201 86.0848 73.0201 85.9493ZM71.7223 79.1967C71.7223 79.4097 71.7569 79.5923 71.8276 79.7431C71.897 79.8924 71.994 80.0225 72.1175 80.1303C72.2395 80.2382 72.3837 80.3323 72.5501 80.4153C72.7137 80.4969 72.887 80.573 73.0687 80.6407C73.0687 79.7776 73.0687 78.9159 73.0687 78.0528C72.8787 78.0681 72.704 78.0985 72.5431 78.1483C72.3837 78.1967 72.2409 78.2659 72.1175 78.3558C71.994 78.4457 71.897 78.5577 71.8276 78.6946C71.7583 78.8329 71.7223 79.0003 71.7223 79.1967ZM74.8463 83.5066C74.8463 83.2756 74.8144 83.0765 74.7479 82.9077C74.6813 82.7376 74.594 82.5937 74.483 82.4734C74.3721 82.3545 74.2418 82.2521 74.0948 82.1691C73.9464 82.0847 73.7856 82.0073 73.6122 81.9354C73.6122 82.9409 73.6122 83.9478 73.6122 84.9534C74.0088 84.8856 74.3125 84.728 74.526 84.4873C74.7396 84.2452 74.8463 83.9174 74.8463 83.5066Z" fill="#F6F6F6"/>
<path fill-rule="evenodd" clip-rule="evenodd" d="M36.4926 70.3914C36.4926 71.4841 35.5968 72.3707 34.4931 72.3707C33.3893 72.3707 32.495 71.4855 32.495 70.3914C32.495 69.2987 33.3893 68.4121 34.4931 68.4121C35.5968 68.4135 36.4926 69.2987 36.4926 70.3914Z" fill="#6B8756"/>
<path fill-rule="evenodd" clip-rule="evenodd" d="M36.4926 86.0901C36.4926 87.1828 35.5968 88.0694 34.4931 88.0694C33.3893 88.0694 32.495 87.1828 32.495 86.0901C32.495 84.9961 33.3893 84.1108 34.4931 84.1108C35.5968 84.1095 36.4926 84.9961 36.4926 86.0901Z" fill="#6B8756"/>
<path fill-rule="evenodd" clip-rule="evenodd" d="M83.7888 88.0686C83.7888 89.1613 82.8931 90.0479 81.7907 90.0479C80.6856 90.0479 79.7912 89.1613 79.7912 88.0686C79.7912 86.976 80.687 86.0894 81.7907 86.0894C82.8945 86.0907 83.7888 86.976 83.7888 88.0686Z" fill="#6B8756"/>
<path fill-rule="evenodd" clip-rule="evenodd" d="M83.7888 72.3709C83.7888 73.465 82.8931 74.3502 81.7907 74.3502C80.6856 74.3502 79.7912 73.4636 79.7912 72.3709C79.7912 71.2782 80.687 70.3916 81.7907 70.3916C82.8945 70.3916 83.7888 71.2782 83.7888 72.3709Z" fill="#6B8756"/>
<path d="M53.1239 33.1261H53.1295C53.1295 33.1261 42.6813 48.2993 47.723 55.9924L51.1729 57.785C53.8047 59.1515 55.391 62.1281 55.1678 65.2747C55.1387 65.6897 55.1137 66.0521 55.0957 66.3273L54.9584 68.3426C54.7352 71.5584 54.5577 73.795 54.4565 74.4368C54.1251 76.5793 55.3924 78.6664 57.3614 79.109L57.4404 79.1229C59.4094 79.5655 61.3646 78.0744 61.7209 75.7701C62.4988 70.8336 63.0119 65.8515 63.2573 60.8528C63.2573 60.8459 63.2587 60.8403 63.2587 60.8334C63.3031 60.0298 63.866 59.4987 64.3888 58.9247C67.5572 55.4516 68.9036 51.54 69.8507 45.8774C71.3011 37.1981 67.689 33.1274 67.689 33.1274V18.5933H53.1239V33.1261Z" fill="#FFCF9F"/>
</g>
<defs>
<clipPath id="clip0_154_2556">
<rect width="84" height="84" fill="white" transform="translate(32 32)"/>
</clipPath>
</defs>
</svg>
