<svg width="156" height="156" viewBox="0 0 156 156" fill="none" xmlns="http://www.w3.org/2000/svg">
<rect width="156" height="156" rx="78" fill="#D8E4E8"/>
<path d="M103.092 57.58C103.016 56.163 102.805 54.733 102.411 53.307C102.02 51.88 101.474 50.54 100.812 49.284L105.095 43.459L97.9975 36.445L92.2135 40.804C89.6585 39.499 86.8345 38.722 83.8995 38.608L80.9995 32L71.3775 34.639L72.2555 41.803C69.7915 43.399 67.7545 45.509 66.2235 47.933L59.0225 47.137L56.5005 56.789L63.1525 59.613C63.2265 61.03 63.4405 62.463 63.8315 63.887C64.2235 65.312 64.7705 66.653 65.4315 67.91L61.1505 73.734L68.2435 80.748L74.0335 76.387C76.5855 77.695 79.4115 78.471 82.3445 78.584L85.2445 85.194L94.8675 82.557L93.9875 75.391C96.4575 73.795 98.4885 71.685 100.021 69.26L107.22 70.055L109.742 60.404L103.092 57.58ZM85.7335 68.124C80.4735 69.567 75.0355 66.473 73.5925 61.209C72.1505 55.948 75.2465 50.511 80.5075 49.069C85.7725 47.626 91.2075 50.72 92.6505 55.983C94.0955 61.247 90.9955 66.68 85.7335 68.124Z" fill="#27AAE1"/>
<path d="M84.7605 64.5742C81.4595 65.4792 78.0485 63.5382 77.1445 60.2362C76.2385 56.9342 78.1815 53.5242 81.4835 52.6192C84.7845 51.7142 88.1965 53.6552 89.1005 56.9572C90.0065 60.2582 88.0625 63.6692 84.7605 64.5742Z" fill="#4D4753"/>
<path opacity="0.2" d="M97.9995 36.444L102.582 40.973C97.7325 43.768 93.0465 46.947 88.5545 50.356C86.2645 48.846 83.3635 48.286 80.5085 49.069C75.2475 50.51 72.1515 55.948 73.5935 61.209C73.7285 61.704 73.9105 62.173 74.1135 62.626C69.8345 66.649 65.8375 70.747 62.1725 74.743L61.1505 73.734L65.4315 67.91C64.7705 66.652 64.2235 65.311 63.8315 63.887C63.4405 62.462 63.2275 61.03 63.1525 59.613L56.5005 56.789L59.0225 47.137L66.2235 47.933C67.7545 45.509 69.7915 43.399 72.2555 41.803L71.3775 34.639L80.9995 32L83.8995 38.608C86.8355 38.722 89.6595 39.5 92.2135 40.804L97.9995 36.444ZM81.4825 52.619C78.2935 53.493 76.3795 56.706 77.0675 59.899C79.7415 57.486 82.5135 55.114 85.3745 52.829C84.1735 52.358 82.8215 52.251 81.4825 52.619Z" fill="white"/>
<path d="M73.0864 105.903H108.676C106.111 100.09 103.686 93.0122 104.891 89.0482C106.594 83.4542 113.415 75.4462 114.968 64.8042H51.9995C52.0015 67.4662 51.4274 70.8822 48.8884 73.1992C44.1874 77.4922 45.2105 79.9042 46.7225 81.1312C48.2355 82.3582 50.7304 83.4202 49.8714 84.9752C49.0124 86.5282 48.9724 88.3272 50.4834 89.4312C50.4834 89.4312 49.6675 91.9672 51.8335 94.0102C54.0005 96.0552 52.9365 96.9142 52.8145 99.0812C52.6925 101.247 56.0045 104.682 61.8105 103.088C65.1825 102.159 69.8334 102.577 73.0864 105.903Z" fill="#4D4753"/>
<path d="M112.965 104.318H63.7085V113.979H112.965V104.318Z" fill="#27AAE1"/>
<path opacity="0.2" d="M86.971 42.183L86.552 41.667C86.863 41.216 87.047 40.673 87.047 40.084C87.047 38.542 85.797 37.292 84.255 37.292C82.713 37.292 81.464 38.542 81.464 40.084C81.464 40.532 81.578 40.947 81.765 41.322L53.888 46.143C53.645 44.85 52.514 43.87 51.149 43.87C49.608 43.87 48.358 45.12 48.358 46.662C48.358 47.689 48.92 48.577 49.747 49.061L36.888 65.046C36.376 64.459 35.631 64.08 34.791 64.08C33.25 64.08 32 65.33 32 66.871C32 68.412 33.25 69.662 34.791 69.662C35.116 69.662 35.423 69.596 35.713 69.494L37.809 88.16C36.355 88.257 35.202 89.455 35.202 90.933C35.202 92.474 36.452 93.724 37.994 93.724C39.05 93.724 39.957 93.13 40.432 92.266L41.136 92.494C53.979 78.299 76.72 57.586 105.041 50.441L86.971 42.183Z" fill="white"/>
</svg>
