<svg width="20" height="20" viewBox="0 0 20 20" fill="none" xmlns="http://www.w3.org/2000/svg">
<path opacity="0.1" d="M10 0C4.47715 0 0 4.47715 0 10C0 15.5228 4.47715 20 10 20C15.5228 20 20 15.5228 20 10C19.9936 4.47982 15.5202 0.00642897 10 0Z" fill="white"/>
<path d="M15.7725 6.83362L10.0683 14.5745C9.93231 14.7549 9.72945 14.8732 9.50536 14.9027C9.28127 14.9321 9.05475 14.8703 8.87668 14.7311L4.80334 11.4745C4.4439 11.1868 4.3857 10.6622 4.67334 10.3028C4.96099 9.94334 5.48557 9.88514 5.84501 10.1728L9.24168 12.8903L14.4308 5.84778C14.601 5.59244 14.8977 5.45127 15.2032 5.48032C15.5087 5.50936 15.7734 5.70393 15.8924 5.98676C16.0114 6.2696 15.9653 6.59494 15.7725 6.83362Z" fill="white"/>
</svg>
