<svg width="22" height="22" viewBox="0 0 22 22" fill="none" xmlns="http://www.w3.org/2000/svg">
<path d="M17.4167 17.4165H4.58333V7.33317H17.4167M14.6667 0.916504V2.74984H7.33333V0.916504H5.5V2.74984H4.58333C3.56583 2.74984 2.75 3.56567 2.75 4.58317V17.4165C2.75 17.9027 2.94315 18.369 3.28697 18.7129C3.63079 19.0567 4.0971 19.2498 4.58333 19.2498H17.4167C17.9029 19.2498 18.3692 19.0567 18.713 18.7129C19.0568 18.369 19.25 17.9027 19.25 17.4165V4.58317C19.25 4.09694 19.0568 3.63062 18.713 3.28681C18.3692 2.94299 17.9029 2.74984 17.4167 2.74984H16.5V0.916504M15.5833 10.9998H11V15.5832H15.5833V10.9998Z" fill="#3C3C3C"/>
</svg>
