<svg width="12" height="12" viewBox="0 0 12 12" fill="none" xmlns="http://www.w3.org/2000/svg">
<path d="M2.5 4H1.5V9H10.5V4H9.75M7.75 3.5C7.94568 3.61315 8.11326 3.76907 8.24021 3.95609C8.36717 4.14311 8.45021 4.35641 8.48313 4.58004C8.51606 4.80368 8.49802 5.03186 8.43036 5.24753C8.36269 5.46321 8.24716 5.66081 8.0924 5.82556C7.93763 5.99031 7.74763 6.11795 7.5366 6.19894C7.32556 6.27993 7.09895 6.31218 6.8737 6.29328C6.64845 6.27438 6.43039 6.20482 6.2358 6.08979C6.04122 5.97476 5.87515 5.81724 5.75 5.629M6.5 3C6.5 3.39782 6.34196 3.77936 6.06066 4.06066C5.77936 4.34196 5.39782 4.5 5 4.5C4.60218 4.5 4.22064 4.34196 3.93934 4.06066C3.65804 3.77936 3.5 3.39782 3.5 3C3.5 2.60218 3.65804 2.22064 3.93934 1.93934C4.22064 1.65804 4.60218 1.5 5 1.5C5.39782 1.5 5.77936 1.65804 6.06066 1.93934C6.34196 2.22064 6.5 2.60218 6.5 3Z" stroke="white" stroke-width="0.666667" stroke-linecap="round" stroke-linejoin="round"/>
</svg>
