<svg width="24" height="25" viewBox="0 0 24 25" fill="none" xmlns="http://www.w3.org/2000/svg">
<path d="M12 15.5C13.6569 15.5 15 14.1569 15 12.5C15 10.8431 13.6569 9.5 12 9.5C10.3431 9.5 9 10.8431 9 12.5C9 14.1569 10.3431 15.5 12 15.5Z" fill="#595959"/>
<path d="M23.2052 12.245C22.3231 9.96324 20.7917 7.98996 18.8003 6.56906C16.8089 5.14817 14.4448 4.34193 12.0002 4.25C9.55556 4.34193 7.19146 5.14817 5.20007 6.56906C3.20868 7.98996 1.67729 9.96324 0.795169 12.245C0.735595 12.4098 0.735595 12.5902 0.795169 12.755C1.67729 15.0368 3.20868 17.01 5.20007 18.4309C7.19146 19.8518 9.55556 20.6581 12.0002 20.75C14.4448 20.6581 16.8089 19.8518 18.8003 18.4309C20.7917 17.01 22.3231 15.0368 23.2052 12.755C23.2647 12.5902 23.2647 12.4098 23.2052 12.245ZM12.0002 17.375C11.036 17.375 10.0935 17.0891 9.29177 16.5534C8.49008 16.0177 7.86523 15.2564 7.49626 14.3656C7.12728 13.4748 7.03074 12.4946 7.21884 11.5489C7.40694 10.6033 7.87124 9.73464 8.55302 9.05285C9.23481 8.37107 10.1034 7.90677 11.0491 7.71867C11.9948 7.53057 12.975 7.62711 13.8658 7.99609C14.7565 8.36506 15.5179 8.98991 16.0536 9.7916C16.5893 10.5933 16.8752 11.5358 16.8752 12.5C16.8732 13.7923 16.3589 15.0311 15.4451 15.945C14.5313 16.8588 13.2925 17.373 12.0002 17.375Z" fill="#595959"/>
</svg>
