<svg width="22" height="22" viewBox="0 0 22 22" fill="none" xmlns="http://www.w3.org/2000/svg">
<path d="M16.069 13.3892C16.069 14.3132 16.3319 14.6817 17.0194 14.6817C18.5517 14.6817 19.5274 12.7292 19.5274 9.48205C19.5274 4.51885 15.9106 2.14285 11.3951 2.14285C6.74979 2.14285 2.52469 5.25805 2.52469 11.1452C2.52469 16.7684 6.22069 19.8308 11.8967 19.8308C13.8239 19.8308 15.1175 19.6196 17.0964 18.9597L17.521 20.7274C15.5674 21.3621 13.4796 21.5457 11.8703 21.5457C4.42549 21.5457 0.437988 17.4537 0.437988 11.1441C0.437988 4.78175 5.05909 0.452148 11.4215 0.452148C18.0479 0.452148 21.558 4.41215 21.558 9.26975C21.558 13.3881 20.2655 16.5297 16.1999 16.5297C14.3508 16.5297 13.1375 15.7905 12.9791 14.1526C12.5039 15.9742 11.2367 16.5297 9.51959 16.5297C7.22279 16.5297 5.29559 14.7598 5.29559 11.1969C5.29559 7.60655 6.98629 5.38895 10.0223 5.38895C11.6327 5.38895 12.6359 6.02255 13.0825 7.02575L13.8492 5.62655H16.0668V13.3892H16.069ZM12.8229 9.90445C12.8229 8.45355 11.7394 7.84525 10.8418 7.84525C9.86499 7.84525 8.78369 8.63615 8.78369 10.9604C8.78369 12.8084 9.60209 13.838 10.8418 13.838C11.713 13.838 12.8229 13.2836 12.8229 11.7524V9.90445Z" fill="#3C3C3C"/>
</svg>
