<svg width="245" height="67" viewBox="0 0 245 67" fill="none" xmlns="http://www.w3.org/2000/svg">
<path d="M47.4118 7.22044C47.2891 5.73056 47.7608 4.79782 48.8551 4.0651C50.375 3.04747 51.8411 1.945 53.2787 0.814257C54.2023 0.0877895 55.1856 -0.0948737 56.3211 0.041972C60.2895 0.520258 64.2539 1.07377 68.2372 1.3676C70.1467 1.50847 70.592 2.32161 70.5818 4.02825C70.53 12.7235 70.5588 21.4192 70.5594 30.1148C70.5595 31.0107 70.5594 31.9066 70.5594 32.6244C71.5385 33.2898 72.1581 32.8362 72.6478 32.4753C74.7014 30.9614 76.1096 31.7585 78.0981 33.0709C83.2113 36.4457 84.8904 40.8622 84.1734 46.7454C83.7555 50.1731 84.131 53.6929 84.0932 57.1707C84.0762 58.7377 84.634 59.2254 86.2318 58.8277C87.7247 58.4561 89.1979 57.7935 91 57.9746C90.511 59.1232 89.4925 59.1094 88.7222 59.3188C76.1689 62.7297 63.4895 65.4394 50.4649 66.3999C38.623 67.2732 26.8249 67.5191 15.1593 64.845C11.1604 63.9282 7.30219 62.589 3.98524 60.0637C-0.208075 56.871 -1.13572 52.6031 1.40905 47.9605C3.76173 43.6683 7.62257 40.8765 11.5657 38.217C15.5081 35.558 19.7375 33.3838 24.1132 31.5259C25.7509 30.8305 26.3546 29.8567 26.2811 28.1212C26.162 25.3105 26.2999 22.4899 26.2277 19.676C26.1882 18.1387 26.7636 17.2583 28.2356 16.6722C32.4919 14.9774 36.7617 13.2897 40.895 11.3273C43.1811 10.242 44.8754 11.8248 46.9673 12.1668C47.6617 10.54 47.283 8.95911 47.4118 7.22044ZM63.3893 43.5847C63.391 43.0883 63.4556 42.5828 63.3843 42.0969C62.9105 38.872 63.7521 36.4378 67.2074 35.3912C68.638 34.9578 68.8881 33.7638 68.8832 32.4087C68.8515 23.6392 68.8089 14.869 68.8904 6.10019C68.9087 4.14236 68.0519 3.43329 66.2866 3.28591C63.5495 3.05745 60.7969 2.91017 58.0875 2.49347C56.2713 2.21413 55.9317 2.93258 55.934 4.48431C55.9604 22.5199 55.969 40.5556 55.9257 58.5912C55.9211 60.5065 56.5299 61.3988 58.5411 61.0913C59.1953 60.9913 59.8731 61.0092 60.5389 61.0247C62.6573 61.074 63.4732 60.092 63.4254 57.9768C63.3209 53.3461 63.3907 48.7115 63.3893 43.5847ZM52.7365 38.1069C52.7367 33.5544 52.7969 29.001 52.7235 24.4497C52.6058 17.1629 53.9826 19.2135 47.1225 15.7234C44.0167 14.1433 43.5331 14.475 43.5295 17.8677C43.5167 30.0352 43.4999 42.2028 43.5342 54.3702C43.5565 62.2772 42.6887 60.7363 50.0807 61.166C52.2715 61.2933 52.7937 60.4612 52.7676 58.4688C52.6809 51.8481 52.7357 45.2257 52.7365 38.1069ZM76.9537 35.3747C75.1631 34.0386 75.6589 35.8302 75.6543 36.4229C75.5999 43.4534 75.6107 50.4844 75.6161 57.5153C75.6166 58.1609 75.4651 59.0827 76.2099 59.2591C77.8574 59.6494 79.495 59.1317 81.0756 58.6923C82.4496 58.3103 82.2528 57.064 82.2559 55.998C82.2653 52.7721 81.9846 49.516 82.3336 46.3273C82.8543 41.5715 81.507 37.9368 76.9537 35.3747ZM19.4925 43.2406C14.4411 50.2386 17.3605 57.4487 25.9794 58.8153C25.9794 51.9511 25.9794 45.1193 25.9794 38.0411C23.2288 39.2406 21.4769 41.108 19.4925 43.2406Z" fill="#5D5FEF"/>
<path d="M127.78 46.36C125.524 46.36 123.592 45.988 121.984 45.244C120.4 44.476 119.164 43.372 118.276 41.932C117.412 40.468 116.944 38.704 116.872 36.64C116.848 35.608 116.836 34.504 116.836 33.328C116.836 32.152 116.848 31.036 116.872 29.98C116.944 27.964 117.412 26.248 118.276 24.832C119.164 23.416 120.412 22.336 122.02 21.592C123.652 20.824 125.572 20.44 127.78 20.44C129.556 20.44 131.116 20.668 132.46 21.124C133.804 21.58 134.932 22.18 135.844 22.924C136.756 23.644 137.452 24.436 137.932 25.3C138.412 26.164 138.664 26.992 138.688 27.784C138.688 28 138.616 28.192 138.472 28.36C138.328 28.504 138.136 28.576 137.896 28.576H133.432C133.192 28.576 133 28.528 132.856 28.432C132.736 28.336 132.628 28.192 132.532 28C132.364 27.568 132.088 27.136 131.704 26.704C131.344 26.248 130.852 25.864 130.228 25.552C129.604 25.24 128.788 25.084 127.78 25.084C126.268 25.084 125.068 25.48 124.18 26.272C123.316 27.064 122.848 28.36 122.776 30.16C122.704 32.224 122.704 34.324 122.776 36.46C122.848 38.332 123.328 39.676 124.216 40.492C125.128 41.308 126.34 41.716 127.852 41.716C128.836 41.716 129.712 41.548 130.48 41.212C131.272 40.852 131.896 40.3 132.352 39.556C132.808 38.812 133.036 37.864 133.036 36.712V35.812H129.112C128.872 35.812 128.668 35.728 128.5 35.56C128.332 35.368 128.248 35.152 128.248 34.912V32.608C128.248 32.344 128.332 32.128 128.5 31.96C128.668 31.792 128.872 31.708 129.112 31.708H137.932C138.196 31.708 138.412 31.792 138.58 31.96C138.748 32.128 138.832 32.344 138.832 32.608V36.532C138.832 38.596 138.376 40.36 137.464 41.824C136.576 43.288 135.292 44.416 133.612 45.208C131.956 45.976 130.012 46.36 127.78 46.36ZM149.703 46.36C148.311 46.36 147.075 46.048 145.995 45.424C144.939 44.776 144.111 43.852 143.511 42.652C142.935 41.428 142.647 39.952 142.647 38.224V28.18C142.647 27.916 142.731 27.7 142.899 27.532C143.067 27.364 143.271 27.28 143.511 27.28H147.327C147.591 27.28 147.807 27.364 147.975 27.532C148.143 27.7 148.227 27.916 148.227 28.18V38.008C148.227 40.696 149.403 42.04 151.755 42.04C152.883 42.04 153.771 41.692 154.419 40.996C155.091 40.276 155.427 39.28 155.427 38.008V28.18C155.427 27.916 155.511 27.7 155.679 27.532C155.847 27.364 156.063 27.28 156.327 27.28H160.143C160.383 27.28 160.587 27.364 160.755 27.532C160.923 27.7 161.007 27.916 161.007 28.18V45.1C161.007 45.364 160.923 45.58 160.755 45.748C160.587 45.916 160.383 46 160.143 46H156.615C156.351 46 156.135 45.916 155.967 45.748C155.799 45.58 155.715 45.364 155.715 45.1V43.696C155.091 44.56 154.287 45.22 153.303 45.676C152.319 46.132 151.119 46.36 149.703 46.36ZM166.402 46C166.162 46 165.958 45.916 165.79 45.748C165.622 45.58 165.538 45.364 165.538 45.1V28.18C165.538 27.916 165.622 27.7 165.79 27.532C165.958 27.364 166.162 27.28 166.402 27.28H170.002C170.266 27.28 170.482 27.364 170.65 27.532C170.818 27.7 170.902 27.916 170.902 28.18V45.1C170.902 45.364 170.818 45.58 170.65 45.748C170.482 45.916 170.266 46 170.002 46H166.402ZM166.294 24.4C166.054 24.4 165.85 24.316 165.682 24.148C165.514 23.98 165.43 23.764 165.43 23.5V20.62C165.43 20.356 165.514 20.14 165.682 19.972C165.85 19.78 166.054 19.684 166.294 19.684H170.074C170.338 19.684 170.554 19.78 170.722 19.972C170.914 20.14 171.01 20.356 171.01 20.62V23.5C171.01 23.764 170.914 23.98 170.722 24.148C170.554 24.316 170.338 24.4 170.074 24.4H166.294ZM176.712 46C176.448 46 176.232 45.916 176.064 45.748C175.896 45.58 175.812 45.364 175.812 45.1V21.7C175.812 21.436 175.896 21.22 176.064 21.052C176.232 20.884 176.448 20.8 176.712 20.8H185.748C188.148 20.8 190.152 21.184 191.76 21.952C193.368 22.696 194.592 23.8 195.432 25.264C196.296 26.704 196.752 28.492 196.8 30.628C196.824 31.684 196.836 32.608 196.836 33.4C196.836 34.192 196.824 35.104 196.8 36.136C196.728 38.368 196.284 40.216 195.468 41.68C194.652 43.144 193.452 44.236 191.868 44.956C190.284 45.652 188.304 46 185.928 46H176.712ZM181.536 41.356H185.748C186.948 41.356 187.932 41.176 188.7 40.816C189.468 40.456 190.032 39.892 190.392 39.124C190.776 38.332 190.98 37.312 191.004 36.064C191.028 35.368 191.04 34.744 191.04 34.192C191.064 33.64 191.064 33.088 191.04 32.536C191.04 31.984 191.028 31.372 191.004 30.7C190.956 28.9 190.488 27.58 189.6 26.74C188.736 25.876 187.392 25.444 185.568 25.444H181.536V41.356ZM201.804 46C201.564 46 201.36 45.916 201.192 45.748C201.024 45.58 200.94 45.364 200.94 45.1V28.18C200.94 27.916 201.024 27.7 201.192 27.532C201.36 27.364 201.564 27.28 201.804 27.28H205.404C205.668 27.28 205.884 27.364 206.052 27.532C206.22 27.7 206.304 27.916 206.304 28.18V45.1C206.304 45.364 206.22 45.58 206.052 45.748C205.884 45.916 205.668 46 205.404 46H201.804ZM201.696 24.4C201.456 24.4 201.252 24.316 201.084 24.148C200.916 23.98 200.832 23.764 200.832 23.5V20.62C200.832 20.356 200.916 20.14 201.084 19.972C201.252 19.78 201.456 19.684 201.696 19.684H205.476C205.74 19.684 205.956 19.78 206.124 19.972C206.316 20.14 206.412 20.356 206.412 20.62V23.5C206.412 23.764 206.316 23.98 206.124 24.148C205.956 24.316 205.74 24.4 205.476 24.4H201.696ZM212.115 46C211.851 46 211.635 45.916 211.467 45.748C211.299 45.58 211.215 45.364 211.215 45.1V21.7C211.215 21.436 211.299 21.22 211.467 21.052C211.635 20.884 211.851 20.8 212.115 20.8H215.391C215.751 20.8 216.015 20.884 216.183 21.052C216.351 21.22 216.459 21.352 216.507 21.448L226.119 36.46V21.7C226.119 21.436 226.203 21.22 226.371 21.052C226.539 20.884 226.743 20.8 226.983 20.8H230.655C230.919 20.8 231.135 20.884 231.303 21.052C231.471 21.22 231.555 21.436 231.555 21.7V45.1C231.555 45.34 231.471 45.556 231.303 45.748C231.135 45.916 230.919 46 230.655 46H227.343C226.983 46 226.719 45.916 226.551 45.748C226.407 45.556 226.299 45.424 226.227 45.352L216.651 30.808V45.1C216.651 45.364 216.567 45.58 216.399 45.748C216.231 45.916 216.015 46 215.751 46H212.115ZM237.347 46C237.107 46 236.903 45.916 236.735 45.748C236.567 45.58 236.483 45.364 236.483 45.1V28.18C236.483 27.916 236.567 27.7 236.735 27.532C236.903 27.364 237.107 27.28 237.347 27.28H240.947C241.211 27.28 241.427 27.364 241.595 27.532C241.763 27.7 241.847 27.916 241.847 28.18V45.1C241.847 45.364 241.763 45.58 241.595 45.748C241.427 45.916 241.211 46 240.947 46H237.347ZM237.239 24.4C236.999 24.4 236.795 24.316 236.627 24.148C236.459 23.98 236.375 23.764 236.375 23.5V20.62C236.375 20.356 236.459 20.14 236.627 19.972C236.795 19.78 236.999 19.684 237.239 19.684H241.019C241.283 19.684 241.499 19.78 241.667 19.972C241.859 20.14 241.955 20.356 241.955 20.62V23.5C241.955 23.764 241.859 23.98 241.667 24.148C241.499 24.316 241.283 24.4 241.019 24.4H237.239Z" fill="#4E5EE6"/>
</svg>
