<svg width="24" height="24" viewBox="0 0 24 24" fill="none" xmlns="http://www.w3.org/2000/svg">
<path d="M23.9875 20.8915C23.731 18.846 22.3634 12.6765 15.1677 11.7356C15.0574 11.7212 14.8404 11.696 14.8252 11.8963C14.7226 13.2517 13.8374 16.8384 13.2296 19.1544C13.2041 19.2517 13.1412 19.2883 13.129 19.1499C13.1168 19.0115 12.7036 14.3084 12.7036 14.3084C13.3448 14.2004 13.8089 13.8862 13.8089 13.5151C13.8089 13.0547 13.0951 12.6814 12.2143 12.6814C12.1407 12.6814 11.8548 12.6814 11.7812 12.6814C10.9005 12.6814 10.1866 13.0547 10.1866 13.5151C10.1866 13.8862 10.6508 14.2004 11.292 14.3084C11.292 14.3084 10.879 18.9235 10.8701 19.1101C10.8612 19.2966 10.7857 19.2302 10.7568 19.1213C10.1568 16.8571 9.23712 13.4103 9.17771 11.9913C9.16658 11.7262 8.96579 11.718 8.86881 11.7304C1.66178 12.65 0.274246 18.8006 0.0106065 20.8708C-0.0436188 21.2962 0.110356 21.6831 0.466057 21.8877C1.62455 22.5547 4.85142 23.9745 11.3284 23.9745C11.4564 24.0315 12.6672 23.9745 12.6672 23.9745C19.4361 23.9744 22.6551 22.4238 23.6735 21.8023C23.9288 21.6465 24.0393 21.3043 23.9875 20.8915Z" fill="#3B3E43"/>
<path d="M6.93224 6.77098C7.45622 8.03365 9.18529 11.6798 11.6786 11.6798C11.7874 11.6798 12.2121 11.6798 12.321 11.6798C14.8144 11.6798 16.5434 8.03365 17.0673 6.77098C17.0768 6.76137 17.0861 6.74871 17.0947 6.72917C17.1862 6.51943 18.234 3.91215 16.9378 1.94221C16.8492 1.80732 16.7567 1.6945 16.6621 1.59998C16.5628 1.03677 15.9346 0 12.0179 0C12.0117 0 12.0059 0.00012976 11.9997 0.00012976C11.9937 0.00012976 11.9877 0 11.9817 0C8.06504 0 7.43686 1.03677 7.33751 1.59998C7.24289 1.6945 7.15056 1.80732 7.0618 1.94221C5.76566 3.91215 6.81347 6.51936 6.90499 6.72917C6.91342 6.74871 6.92273 6.76137 6.93224 6.77098ZM7.94816 5.0833C7.94451 4.28574 7.7902 3.4839 7.83707 3.36718C8.38202 4.12806 9.49047 4.8892 11.7365 4.8892C11.8265 4.8892 11.9137 4.88731 11.9998 4.88459C12.0859 4.88731 12.1731 4.8892 12.2631 4.8892C14.5092 4.8892 15.6177 4.12799 16.1626 3.36718C16.2093 3.4839 16.0515 3.68111 16.0515 4.81798C16.0515 5.95485 16.292 6.82239 16.292 6.82239C15.6922 8.16998 14.2088 10.9977 12.321 10.9977C12.2124 10.9977 11.7872 10.9977 11.6786 10.9977C9.79073 10.9977 8.30736 8.16998 7.70778 6.82239C7.70778 6.82239 7.95187 5.88072 7.94816 5.0833Z" fill="#3B3E43"/>
</svg>
