<svg width="11" height="11" viewBox="0 0 11 11" fill="none" xmlns="http://www.w3.org/2000/svg">
<g clip-path="url(#clip0_186_13435)">
<path d="M5.53776 1.3335C7.83901 1.3335 9.70443 3.19891 9.70443 5.50016C9.70443 7.80141 7.83901 9.66683 5.53776 9.66683C3.23651 9.66683 1.37109 7.80141 1.37109 5.50016C1.37109 3.19891 3.23651 1.3335 5.53776 1.3335ZM5.53776 2.16683C4.65371 2.16683 3.80586 2.51802 3.18074 3.14314C2.55562 3.76826 2.20443 4.61611 2.20443 5.50016C2.20443 6.38422 2.55562 7.23206 3.18074 7.85719C3.80586 8.48231 4.65371 8.8335 5.53776 8.8335C6.42182 8.8335 7.26966 8.48231 7.89478 7.85719C8.5199 7.23206 8.87109 6.38422 8.87109 5.50016C8.87109 4.61611 8.5199 3.76826 7.89478 3.14314C7.26966 2.51802 6.42182 2.16683 5.53776 2.16683ZM5.53776 3.00016C5.63982 3.00018 5.73832 3.03764 5.81458 3.10546C5.89085 3.17328 5.93957 3.26672 5.95151 3.36808L5.95443 3.41683V5.32766L7.08234 6.45558C7.15707 6.53056 7.20046 6.63118 7.20369 6.73699C7.20692 6.8428 7.16975 6.94588 7.09974 7.02528C7.02973 7.10468 6.93211 7.15446 6.82673 7.1645C6.72135 7.17453 6.61609 7.14408 6.53234 7.07933L6.49318 7.04475L5.24318 5.79475C5.17842 5.72993 5.13683 5.64558 5.12484 5.55475L5.12109 5.50016V3.41683C5.12109 3.30632 5.16499 3.20034 5.24313 3.1222C5.32127 3.04406 5.42725 3.00016 5.53776 3.00016Z" fill="#5D5FEF"/>
</g>
<defs>
<clipPath id="clip0_186_13435">
<rect width="10" height="10" fill="white" transform="translate(0.537598 0.5)"/>
</clipPath>
</defs>
</svg>
