<svg width="1440" height="1770" viewBox="0 0 1440 1770" fill="none" xmlns="http://www.w3.org/2000/svg">
<path opacity="0.02" d="M272.696 -9.99469C155.25 -105.006 184.324 -208.994 213.541 -249.113L618.923 -877.91L2782.51 516.941L2377.13 1145.74C2352.65 1188.91 2269.94 1258.32 2134.92 1190.57C1966.14 1105.88 1931.96 1168.26 1876.68 1200.95C1821.39 1233.64 1751.89 1257.16 1641.56 1131.77C1531.22 1006.37 1407.26 908.362 1247.75 934.157C1120.14 954.792 1036.67 912.636 1007.93 894.109C979.195 875.581 906.343 816.956 872.462 692.211C830.111 536.28 689.67 463.827 529.91 415.096C370.151 366.365 362.889 293.35 369.843 229.499C376.796 165.648 419.504 108.769 272.696 -9.99469Z" fill="black"/>
<path d="M346.097 -93.3282C260.084 -192.907 301.061 -277.564 332.301 -307.444L776.886 -783.901L2416.3 745.841L1971.71 1222.3C1944.06 1255.53 1862.44 1302.26 1757.15 1223.34C1625.54 1124.68 1586.62 1172.88 1534.18 1192.37C1481.73 1211.86 1418.52 1221.3 1343.3 1096.77C1268.07 972.238 1176.93 869.083 1036.21 866.571C923.634 864.561 858.587 815.538 836.811 795.218C815.034 774.899 761.632 713.396 751.845 601.228C739.611 461.017 630.403 377.226 500.972 310.789C371.54 244.351 376.587 180.638 392.405 126.975C408.223 73.3125 453.615 31.1457 346.097 -93.3282Z" fill="black"/>
<path d="M346.097 -93.3282C260.084 -192.907 301.061 -277.564 332.301 -307.444L776.886 -783.901L2416.3 745.841L1971.71 1222.3C1944.06 1255.53 1862.44 1302.26 1757.15 1223.34C1625.54 1124.68 1586.62 1172.88 1534.18 1192.37C1481.73 1211.86 1418.52 1221.3 1343.3 1096.77C1268.07 972.238 1176.93 869.083 1036.21 866.571C923.634 864.561 858.587 815.538 836.811 795.218C815.034 774.899 761.632 713.396 751.845 601.228C739.611 461.017 630.403 377.226 500.972 310.789C371.54 244.351 376.587 180.638 392.405 126.975C408.223 73.3125 453.615 31.1457 346.097 -93.3282Z" fill="url(#paint0_linear_124_749)"/>
<path d="M485.478 -865.364C459.184 -994.294 536.342 -1048.08 578.207 -1058.85L1199.06 -1256.86L1880.38 879.391L1259.53 1077.4C1219.15 1092.85 1125.11 1093.68 1071.9 973.329C1005.39 822.896 947.855 845.885 892.584 837.224C837.313 828.564 777.565 805.868 772.887 660.457C768.209 515.045 739.194 380.488 617.696 309.447C520.498 252.613 487.754 178.033 478.704 149.657C469.654 121.281 453.171 41.5146 499.517 -61.0993C557.448 -189.367 503.201 -315.876 422.826 -437.146C342.451 -558.415 378.025 -611.512 418.076 -650.574C458.127 -689.635 518.346 -704.202 485.478 -865.364Z" fill="black"/>
<path d="M485.478 -865.364C459.184 -994.294 536.342 -1048.08 578.207 -1058.85L1199.06 -1256.86L1880.38 879.391L1259.53 1077.4C1219.15 1092.85 1125.11 1093.68 1071.9 973.329C1005.39 822.896 947.855 845.885 892.584 837.224C837.313 828.564 777.565 805.868 772.887 660.457C768.209 515.045 739.194 380.488 617.696 309.447C520.498 252.613 487.754 178.033 478.704 149.657C469.654 121.281 453.171 41.5146 499.517 -61.0993C557.448 -189.367 503.201 -315.876 422.826 -437.146C342.451 -558.415 378.025 -611.512 418.076 -650.574C458.127 -689.635 518.346 -704.202 485.478 -865.364Z" fill="url(#paint1_linear_124_749)"/>
<path d="M644.841 -255.233C591.662 -375.592 655.577 -444.589 694.183 -464.042L1258.54 -789.874L2379.68 1151.99L2215.32 1327.82C2179.17 1351.53 2087.46 1372.38 2009.81 1266.15C1912.76 1133.35 1861.45 1168.08 1805.6 1171.4C1749.76 1174.73 1360.34 1265.45 1250.97 1164.22C1144.2 1065.4 1158.36 907.876 1024.51 864.373C917.424 829.571 869.532 763.687 854.64 737.893C839.748 712.099 806.637 637.681 830.038 527.545C859.289 389.875 779.315 277.841 674.932 176.498C570.548 75.1541 593.984 15.6926 624.785 -31.0102C655.587 -77.713 711.315 -104.784 644.841 -255.233Z" fill="black"/>
<path d="M644.841 -255.233C591.662 -375.592 655.577 -444.589 694.183 -464.042L1258.54 -789.874L2379.68 1151.99L2215.32 1327.82C2179.17 1351.53 2087.46 1372.38 2009.81 1266.15C1912.76 1133.35 1861.45 1168.08 1805.6 1171.4C1749.76 1174.73 1360.34 1265.45 1250.97 1164.22C1144.2 1065.4 1158.36 907.876 1024.51 864.373C917.424 829.571 869.532 763.687 854.64 737.893C839.748 712.099 806.637 637.681 830.038 527.545C859.289 389.875 779.315 277.841 674.932 176.498C570.548 75.1541 593.984 15.6926 624.785 -31.0102C655.587 -77.713 711.315 -104.784 644.841 -255.233Z" fill="url(#paint2_linear_124_749)"/>
<defs>
<linearGradient id="paint0_linear_124_749" x1="-471.041" y1="-575.73" x2="1520.03" y2="1029.53" gradientUnits="userSpaceOnUse">
<stop stop-color="#44AAED"/>
<stop offset="0.505208" stop-color="#3FB7FA"/>
<stop offset="1" stop-color="white"/>
</linearGradient>
<linearGradient id="paint1_linear_124_749" x1="608.798" y1="-955.899" x2="1128.15" y2="1590.96" gradientUnits="userSpaceOnUse">
<stop stop-color="#6BFFF6"/>
<stop offset="0.505208" stop-color="#3A6DB3"/>
<stop offset="1" stop-color="#F9F9FC"/>
</linearGradient>
<linearGradient id="paint2_linear_124_749" x1="1208.97" y1="-761.424" x2="1495.11" y2="1956.88" gradientUnits="userSpaceOnUse">
<stop stop-color="#3A6DB3"/>
<stop offset="0.40375" stop-color="#3A6DB3"/>
<stop offset="0.69875" stop-color="#F9F9FC"/>
<stop offset="1" stop-color="#F9F9FC"/>
</linearGradient>
</defs>
</svg>
