<svg width="1440" height="1213" viewBox="0 0 1440 1213" fill="none" xmlns="http://www.w3.org/2000/svg">
<path d="M-211.764 999.085C-328.613 989.532 -353.439 928.762 -351.246 899.572V534.043L1651.5 534.043V899.572C1653.69 928.762 1628.86 989.532 1512.01 999.085C1365.95 1011.03 1369.9 1052.82 1347.53 1086.66C1325.16 1120.49 1289.63 1154.33 1164.63 1127.46C1039.62 1100.59 917.245 1091.63 823.819 1155.32C749.078 1206.27 676.727 1212.04 650.125 1212.04C623.523 1212.04 551.172 1206.27 476.431 1155.32C383.005 1091.63 260.63 1100.59 135.623 1127.46C10.6162 1154.33 -24.9121 1120.49 -47.2818 1086.66C-69.6514 1052.82 -65.7035 1011.03 -211.764 999.085Z" fill="#3A6DB3"/>
<path d="M1787.07 717.12C1927.95 771.656 1932.07 879.554 1916.53 926.686L1722.89 911.333L-330.373 911.334L-570 260.423C-559.898 211.831 -502.377 120.452 -353.105 143.661C-166.516 172.672 -153.055 102.83 -110.417 54.7964C-67.7794 6.76247 -8.8042 -36.8941 134.595 48.747C277.995 134.388 425.996 189.784 569.971 116.44C685.151 57.764 777.515 72.3698 810.543 81.2198C843.572 90.0697 930.864 123.602 1001.27 232.007C1089.29 367.513 1245.16 393.539 1412.17 391.071C1579.18 388.604 1608.42 455.899 1621.33 518.817C1634.24 581.734 1610.98 648.95 1787.07 717.12Z" fill="#3A6DB3"/>
</svg>
