<svg width="469" height="498" viewBox="0 0 469 498" fill="none" xmlns="http://www.w3.org/2000/svg">
<path d="M169.426 119.648C176.308 76.3028 146.749 35.5862 103.404 28.7044C60.059 21.8226 19.3424 51.3816 12.4606 94.7264C5.57879 138.071 35.1379 178.788 78.4826 185.67C121.827 192.551 162.544 162.992 169.426 119.648Z" fill="#2C54AC"/>
<path d="M90.6757 186.655C138.59 186.655 177.433 151.076 177.433 107.187C177.433 63.2978 138.59 27.7188 90.6757 27.7188C42.7611 27.7188 3.9187 63.2978 3.9187 107.187C3.9187 151.076 42.7611 186.655 90.6757 186.655Z" stroke="#2C54AC" stroke-miterlimit="10"/>
<path d="M60.1035 175.108L79.9905 213.417L80.5385 171.681L60.1035 175.108Z" fill="#2C54AC"/>
<path d="M86.0486 134.159L84.7106 126.289C83.8696 121.339 83.7836 117.102 84.4596 113.573C85.1326 110.047 86.2336 106.931 87.7606 104.227C89.2876 101.523 90.8796 99.0627 92.5406 96.8447C94.7936 93.9167 96.7526 91.0627 98.4196 88.2827C100.087 85.5047 100.584 82.1347 99.9106 78.1737C99.5406 75.9977 98.6836 74.2577 97.3436 72.9567C96.0016 71.6567 94.4916 70.7177 92.8156 70.1357C91.1366 69.5567 89.5566 69.3907 88.0716 69.6427C85.1986 70.1307 82.9136 71.2067 81.2106 72.8717C79.5076 74.5367 78.2126 76.5137 77.3296 78.8027C76.4436 81.0927 75.7516 83.4517 75.2476 85.8797L71.2026 86.5667L56.8076 80.7627C57.0986 78.8797 57.7516 76.4267 58.7656 73.4017C59.7796 70.3797 61.4106 67.2497 63.6636 64.0127C65.9146 60.7797 68.9346 57.8727 72.7236 55.2917C76.5106 52.7147 81.2776 50.9347 87.0206 49.9587C92.6636 48.9997 97.8996 49.1037 102.734 50.2677C107.566 51.4327 111.66 53.7927 115.015 57.3487C118.369 60.9037 120.602 65.9477 121.712 72.4827C122.638 77.9287 122.644 82.4607 121.73 86.0777C120.817 89.6967 119.468 92.8557 117.687 95.5497C115.904 98.2477 114.116 100.919 112.326 103.566C110.928 105.537 109.635 107.666 108.446 109.955C107.255 112.246 106.443 114.802 106.007 117.627C105.57 120.451 105.672 123.745 106.311 127.507L106.841 130.625L86.0486 134.159ZM101.769 163.727C98.2046 164.333 95.1186 163.864 92.5156 162.321C89.9086 160.777 88.3386 158.423 87.8006 155.253C87.2796 152.185 88.0036 149.413 89.9776 146.938C91.9486 144.464 94.6686 142.932 98.1346 142.343C101.599 141.754 104.623 142.31 107.204 144.01C109.785 145.711 111.336 148.097 111.858 151.164C112.397 154.334 111.739 157.066 109.891 159.367C108.039 161.668 105.333 163.121 101.769 163.727Z" fill="#55A3F3"/>
<path d="M82.0037 134.847L80.6667 126.977C79.8257 122.027 79.7397 117.79 80.4157 114.261C81.0887 110.735 82.1897 107.619 83.7167 104.915C85.2437 102.211 86.8357 99.7507 88.4967 97.5327C90.7497 94.6047 92.7087 91.7507 94.3757 88.9707C96.0427 86.1927 96.5397 82.8237 95.8667 78.8627C95.4967 76.6867 94.6397 74.9457 93.2997 73.6457C91.9577 72.3457 90.4487 71.4067 88.7717 70.8247C87.0927 70.2457 85.5127 70.0797 84.0277 70.3317C81.1547 70.8197 78.8697 71.8957 77.1667 73.5607C75.4637 75.2257 74.1687 77.2027 73.2857 79.4917C72.3997 81.7817 71.7077 84.1407 71.2027 86.5687L52.7627 81.4517C53.0537 79.5687 53.7067 77.1157 54.7207 74.0907C55.7347 71.0687 57.3657 67.9387 59.6187 64.7017C61.8697 61.4687 64.8897 58.5617 68.6787 55.9807C72.4657 53.4037 77.2327 51.6237 82.9747 50.6477C88.6177 49.6887 93.8537 49.7927 98.6887 50.9567C103.521 52.1217 107.615 54.4817 110.969 58.0377C114.324 61.5927 116.556 66.6367 117.667 73.1707C118.593 78.6167 118.599 83.1487 117.685 86.7657C116.772 90.3847 115.423 93.5437 113.642 96.2387C111.859 98.9367 110.071 101.608 108.281 104.255C106.883 106.226 105.591 108.355 104.401 110.644C103.21 112.935 102.398 115.491 101.962 118.316C101.525 121.14 101.626 124.434 102.266 128.196L102.796 131.314L82.0037 134.847ZM97.7237 164.414C94.1597 165.02 91.0737 164.551 88.4707 163.008C85.8637 161.464 84.2947 159.11 83.7557 155.941C83.2347 152.873 83.9587 150.101 85.9327 147.626C87.9047 145.152 90.6237 143.62 94.0897 143.031C97.5537 142.442 100.578 142.998 103.159 144.698C105.74 146.399 107.291 148.785 107.813 151.853C108.352 155.023 107.694 157.755 105.846 160.056C103.994 162.356 101.288 163.808 97.7237 164.414Z" fill="white"/>
<path d="M434.899 125.808C453.688 93.9051 443.058 52.8106 411.155 34.0212C379.251 15.2318 338.157 25.8626 319.367 57.7657C300.578 89.6689 311.209 130.763 343.112 149.553C375.015 168.342 416.11 157.711 434.899 125.808Z" fill="#55A3F3"/>
<path d="M445.99 115.774C458.16 80.8088 437.081 41.6938 398.909 28.4081C360.738 15.1224 319.928 32.6969 307.758 67.6619C295.589 102.627 316.668 141.742 354.839 155.028C393.011 168.313 433.821 150.739 445.99 115.774Z" stroke="#55A3F3" stroke-miterlimit="10"/>
<path d="M408.93 147.451L393.789 180.566L391.569 145.426L408.93 147.451Z" fill="#55A3F3"/>
<path d="M365.729 111.92L366.845 105.279C367.548 101.102 368.656 97.7027 370.172 95.0787C371.686 92.4567 373.426 90.2787 375.393 88.5477C377.359 86.8167 379.311 85.2987 381.25 83.9917C383.857 82.2837 386.208 80.5537 388.307 78.8007C390.406 77.0497 391.736 74.5027 392.298 71.1607C392.607 69.3247 392.407 67.7007 391.699 66.2927C390.99 64.8847 390.049 63.7177 388.875 62.7897C387.698 61.8627 386.485 61.2927 385.232 61.0817C382.808 60.6737 380.689 60.8967 378.87 61.7507C377.052 62.6047 375.472 63.8207 374.133 65.3997C372.792 66.9787 371.587 68.6657 370.512 70.4597L367.099 69.8857L357.24 61.2697C357.994 59.8507 359.194 58.0767 360.841 55.9487C362.487 53.8217 364.654 51.7807 367.346 49.8267C370.036 47.8757 373.249 46.3967 376.983 45.3917C380.715 44.3887 385.006 44.2927 389.852 45.1077C394.613 45.9087 398.756 47.4427 402.285 49.7117C405.811 51.9797 408.418 54.9957 410.104 58.7587C411.791 62.5207 412.17 67.1587 411.243 72.6727C410.471 77.2677 409.218 80.8807 407.487 83.5087C405.756 86.1387 403.805 88.2807 401.639 89.9337C399.47 91.5887 397.306 93.2207 395.147 94.8327C393.486 96.0147 391.866 97.3527 390.284 98.8467C388.7 100.342 387.343 102.153 386.212 104.283C385.081 106.412 384.249 109.064 383.715 112.238L383.272 114.869L365.729 111.92ZM370.052 139.836C367.045 139.33 364.716 138.101 363.07 136.15C361.421 134.197 360.824 131.886 361.273 129.212C361.708 126.623 363.056 124.615 365.315 123.191C367.572 121.767 370.162 121.3 373.087 121.793C376.01 122.285 378.265 123.566 379.85 125.636C381.434 127.707 382.01 130.038 381.574 132.626C381.124 135.301 379.842 137.295 377.732 138.616C375.619 139.935 373.059 140.341 370.052 139.836Z" fill="#2C54AC"/>
<path d="M362.315 111.346L363.432 104.705C364.134 100.528 365.242 97.1288 366.758 94.5048C368.272 91.8828 370.013 89.7058 371.98 87.9738C373.946 86.2428 375.897 84.7248 377.836 83.4178C380.443 81.7108 382.795 79.9798 384.894 78.2268C386.993 76.4758 388.323 73.9288 388.885 70.5868C389.194 68.7498 388.994 67.1258 388.286 65.7188C387.577 64.3108 386.635 63.1438 385.461 62.2158C384.284 61.2888 383.071 60.7188 381.818 60.5078C379.394 60.0998 377.275 60.3228 375.456 61.1768C373.637 62.0308 372.057 63.2468 370.719 64.8258C369.378 66.4048 368.173 68.0918 367.097 69.8858L353.825 60.6948C354.579 59.2758 355.779 57.5018 357.426 55.3738C359.072 53.2468 361.24 51.2058 363.932 49.2528C366.622 47.3018 369.834 45.8228 373.568 44.8178C377.3 43.8148 381.591 43.7188 386.437 44.5338C391.198 45.3348 395.341 46.8698 398.87 49.1378C402.396 51.4058 405.004 54.4218 406.69 58.1848C408.377 61.9468 408.756 66.5848 407.829 72.0988C407.056 76.6948 405.804 80.3068 404.073 82.9348C402.342 85.5648 400.391 87.7078 398.225 89.3598C396.056 91.0148 393.891 92.6468 391.731 94.2588C390.071 95.4408 388.45 96.7788 386.868 98.2728C385.284 99.7678 383.928 101.579 382.797 103.709C381.666 105.838 380.833 108.491 380.299 111.664L379.856 114.295L362.315 111.346ZM366.639 139.262C363.632 138.756 361.303 137.527 359.657 135.575C358.008 133.622 357.411 131.311 357.86 128.637C358.295 126.048 359.642 124.04 361.901 122.616C364.158 121.192 366.749 120.725 369.674 121.218C372.597 121.71 374.852 122.991 376.437 125.061C378.021 127.132 378.596 129.463 378.16 132.051C377.71 134.726 376.428 136.72 374.318 138.041C372.205 139.361 369.646 139.767 366.639 139.262Z" fill="white"/>
<path d="M287.145 184.555C295.753 158.872 281.911 131.074 256.228 122.466C230.545 113.858 202.746 127.7 194.138 153.383C185.53 179.066 199.372 206.865 225.056 215.473C250.739 224.081 278.537 210.239 287.145 184.555Z" fill="#0A2A6B"/>
<path d="M291.266 185.053C299.262 159.175 282.894 131.136 254.706 122.427C226.519 113.718 197.187 127.636 189.191 153.514C181.195 179.392 197.564 207.431 225.751 216.14C253.938 224.85 283.27 210.932 291.266 185.053Z" stroke="#0A2A6B" stroke-miterlimit="10"/>
<path d="M239.199 215.705L225.277 233.004L226.982 211.93L239.199 215.705Z" fill="#0A2A6B"/>
<path d="M235.002 183.889L234.983 179.271C234.971 176.367 235.323 173.941 236.043 171.991C236.761 170.043 237.684 168.369 238.811 166.97C239.938 165.572 241.079 164.318 242.237 163.21C243.8 161.753 245.188 160.309 246.402 158.881C247.616 157.453 248.218 155.578 248.209 153.254C248.204 151.977 247.88 150.903 247.238 150.034C246.595 149.165 245.823 148.486 244.921 147.996C244.018 147.507 243.132 147.263 242.261 147.266C240.576 147.273 239.17 147.67 238.04 148.459C236.91 149.248 235.985 150.253 235.264 151.476C234.542 152.699 233.924 153.98 233.406 155.317L231.033 155.327L223.368 150.653C223.712 149.606 224.317 148.268 225.182 146.638C226.047 145.009 227.274 143.377 228.865 141.744C230.455 140.112 232.454 138.739 234.86 137.625C237.265 136.513 240.153 135.948 243.523 135.934C246.834 135.921 249.812 136.475 252.46 137.597C255.107 138.719 257.22 140.453 258.798 142.799C260.376 145.145 261.172 148.235 261.188 152.069C261.201 155.264 260.775 157.851 259.912 159.829C259.049 161.808 257.98 163.483 256.709 164.852C255.436 166.223 254.163 167.578 252.892 168.919C251.908 169.911 250.969 171.004 250.074 172.198C249.177 173.393 248.472 174.774 247.956 176.345C247.439 177.915 247.186 179.805 247.195 182.012L247.202 183.841L235.002 183.889ZM241.175 202.248C239.084 202.256 237.368 201.697 236.028 200.57C234.686 199.442 234.014 197.95 234.006 196.091C233.999 194.291 234.675 192.777 236.035 191.552C237.394 190.327 239.091 189.71 241.125 189.702C243.157 189.694 244.831 190.297 246.142 191.512C247.454 192.727 248.113 194.235 248.121 196.035C248.128 197.895 247.495 199.392 246.222 200.53C244.948 201.667 243.266 202.24 241.175 202.248Z" fill="#55A3F3"/>
<path d="M232.629 183.898L232.61 179.28C232.598 176.376 232.95 173.95 233.67 172C234.388 170.052 235.311 168.378 236.438 166.979C237.565 165.581 238.706 164.327 239.864 163.219C241.427 161.762 242.815 160.318 244.029 158.889C245.243 157.461 245.845 155.586 245.836 153.262C245.831 151.985 245.507 150.911 244.865 150.042C244.222 149.173 243.45 148.494 242.548 148.004C241.645 147.515 240.759 147.271 239.887 147.274C238.202 147.281 236.796 147.678 235.666 148.467C234.536 149.256 233.611 150.261 232.89 151.484C232.168 152.707 231.55 153.988 231.032 155.325L220.994 150.66C221.338 149.613 221.943 148.275 222.808 146.645C223.673 145.016 224.899 143.385 226.491 141.751C228.081 140.119 230.08 138.746 232.486 137.632C234.891 136.519 237.779 135.955 241.149 135.941C244.46 135.928 247.438 136.482 250.087 137.604C252.734 138.726 254.847 140.46 256.425 142.806C258.003 145.152 258.8 148.242 258.815 152.075C258.828 155.27 258.403 157.857 257.539 159.835C256.676 161.814 255.607 163.489 254.336 164.858C253.063 166.229 251.79 167.584 250.519 168.925C249.535 169.917 248.596 171.01 247.7 172.204C246.804 173.399 246.098 174.781 245.582 176.351C245.065 177.921 244.812 179.811 244.821 182.018L244.828 183.847L232.629 183.898ZM238.802 202.258C236.711 202.266 234.995 201.707 233.655 200.58C232.313 199.452 231.641 197.961 231.633 196.101C231.626 194.301 232.302 192.788 233.662 191.562C235.021 190.337 236.718 189.72 238.751 189.712C240.783 189.704 242.457 190.307 243.768 191.522C245.08 192.737 245.739 194.245 245.747 196.045C245.755 197.904 245.121 199.402 243.848 200.54C242.575 201.676 240.893 202.249 238.802 202.258Z" fill="white"/>
<g opacity="0.4">
<path d="M435.196 216.966L434.361 212.826C433.836 210.222 433.723 207.983 434.023 206.106C434.322 204.231 434.854 202.565 435.618 201.11C436.381 199.656 437.184 198.329 438.026 197.129C439.17 195.545 440.16 194.003 440.996 192.507C441.833 191.011 442.041 189.221 441.621 187.138C441.39 185.993 440.909 185.087 440.179 184.421C439.448 183.755 438.635 183.283 437.739 183.003C436.842 182.724 436.004 182.662 435.222 182.819C433.711 183.124 432.52 183.729 431.646 184.637C430.772 185.545 430.119 186.611 429.689 187.836C429.258 189.061 428.93 190.32 428.702 191.612L418.869 189.204C418.992 188.204 419.298 186.896 419.785 185.28C420.272 183.665 421.084 181.984 422.223 180.236C423.361 178.49 424.911 176.904 426.873 175.478C428.834 174.054 431.326 173.036 434.346 172.427C437.314 171.829 440.085 171.799 442.66 172.336C445.234 172.874 447.437 174.056 449.268 175.882C451.099 177.708 452.361 180.339 453.054 183.776C453.631 186.641 453.708 189.037 453.283 190.965C452.859 192.893 452.196 194.585 451.298 196.039C450.399 197.494 449.496 198.936 448.593 200.364C447.886 201.429 447.237 202.576 446.645 203.805C446.052 205.036 445.664 206.401 445.479 207.901C445.294 209.401 445.401 211.142 445.799 213.12L446.13 214.76L435.196 216.966ZM443.986 232.347C442.111 232.725 440.472 232.527 439.07 231.753C437.666 230.979 436.798 229.759 436.462 228.092C436.137 226.478 436.475 225 437.479 223.66C438.482 222.32 439.894 221.466 441.718 221.098C443.54 220.731 445.148 220.976 446.541 221.833C447.933 222.691 448.792 223.927 449.117 225.541C449.453 227.208 449.15 228.664 448.209 229.911C447.268 231.157 445.861 231.969 443.986 232.347Z" fill="#55A3F3"/>
<path d="M28.3376 277.133L26.7346 273.635C25.7266 271.435 25.1586 269.473 25.0336 267.746C24.9076 266.021 25.0326 264.433 25.4066 262.983C25.7806 261.534 26.2156 260.19 26.7126 258.95C27.3966 257.306 27.9536 255.733 28.3836 254.231C28.8136 252.73 28.6256 251.099 27.8186 249.339C27.3756 248.372 26.7596 247.668 25.9736 247.23C25.1866 246.792 24.3666 246.542 23.5136 246.481C22.6596 246.42 21.9036 246.54 21.2436 246.842C19.9666 247.427 19.0366 248.213 18.4516 249.2C17.8656 250.187 17.5096 251.269 17.3826 252.445C17.2556 253.622 17.2266 254.806 17.2946 255.999L8.07161 255.913C7.97261 255 7.9716 253.777 8.0666 252.242C8.1626 250.708 8.5316 249.048 9.1776 247.26C9.8226 245.475 10.8666 243.745 12.3096 242.071C13.7516 240.399 15.7496 238.977 18.3016 237.807C20.8096 236.658 23.2606 236.054 25.6566 235.994C28.0516 235.935 30.2516 236.524 32.2566 237.761C34.2616 238.998 35.9286 241.069 37.2596 243.973C38.3686 246.393 38.9366 248.503 38.9616 250.301C38.9876 252.1 38.7526 253.739 38.2586 255.215C37.7646 256.693 37.2646 258.16 36.7616 259.615C36.3556 260.707 36.0196 261.859 35.7506 263.073C35.4816 264.288 35.4216 265.58 35.5706 266.949C35.7186 268.318 36.1766 269.84 36.9426 271.511L37.5776 272.897L28.3376 277.133ZM39.3396 288.941C37.7556 289.667 36.2606 289.833 34.8556 289.439C33.4496 289.045 32.4256 288.144 31.7796 286.736C31.1546 285.373 31.1466 283.991 31.7576 282.593C32.3676 281.196 33.4426 280.144 34.9836 279.437C36.5236 278.732 38.0006 278.614 39.4136 279.084C40.8266 279.555 41.8466 280.472 42.4716 281.836C43.1176 283.245 43.1516 284.599 42.5776 285.901C42.0026 287.202 40.9236 288.215 39.3396 288.941Z" fill="#55A3F3"/>
<path d="M239.844 54.3779L240.417 50.5729C240.778 48.1799 241.377 46.2269 242.218 44.7139C243.057 43.2009 244.031 41.9409 245.137 40.9319C246.243 39.9239 247.343 39.0379 248.438 38.2719C249.911 37.2709 251.238 36.2589 252.419 35.2379C253.601 34.2169 254.336 32.7489 254.625 30.8349C254.784 29.7829 254.653 28.8569 254.236 28.0599C253.817 27.2629 253.268 26.6049 252.588 26.0859C251.907 25.5679 251.208 25.2539 250.49 25.1459C249.101 24.9369 247.893 25.0849 246.862 25.5899C245.831 26.0959 244.941 26.8059 244.191 27.7209C243.44 28.6359 242.768 29.6119 242.171 30.6469L234.5 25.5259C234.917 24.7079 235.585 23.6829 236.505 22.4509C237.425 21.2199 238.643 20.0329 240.162 18.8909C241.68 17.7499 243.5 16.8739 245.624 16.2629C247.746 15.6539 250.196 15.5569 252.973 15.9749C255.701 16.3859 258.083 17.2219 260.12 18.4839C262.157 19.7449 263.676 21.4429 264.676 23.5759C265.676 25.7089 265.938 28.3549 265.462 31.5139C265.065 34.1469 264.385 36.2229 263.422 37.7409C262.459 39.2599 261.365 40.5029 260.144 41.4689C258.921 42.4349 257.7 43.3889 256.482 44.3309C255.545 45.0229 254.632 45.8029 253.743 46.6719C252.853 47.5409 252.096 48.5889 251.47 49.8169C250.844 51.0439 250.394 52.5679 250.121 54.3859L249.894 55.8929L239.844 54.3779ZM242.586 70.2829C240.863 70.0229 239.521 69.3439 238.561 68.2449C237.6 67.1449 237.236 65.8309 237.467 64.2989C237.69 62.8159 238.44 61.6559 239.717 60.8199C240.992 59.9839 242.468 59.6929 244.144 59.9449C245.819 60.1969 247.119 60.9069 248.045 62.0749C248.97 63.2429 249.321 64.5689 249.098 66.0519C248.867 67.5839 248.154 68.7359 246.961 69.5109C245.767 70.2849 244.309 70.5429 242.586 70.2829Z" fill="#55A3F3"/>
<path d="M206.267 97.9508L205.689 94.8828C205.326 92.9528 205.263 91.2968 205.502 89.9128C205.741 88.5298 206.149 87.3038 206.728 86.2348C207.306 85.1668 207.911 84.1938 208.546 83.3148C209.407 82.1548 210.153 81.0248 210.785 79.9258C211.418 78.8278 211.588 77.5068 211.298 75.9628C211.138 75.1138 210.791 74.4398 210.258 73.9408C209.724 73.4418 209.127 73.0848 208.468 72.8688C207.807 72.6538 207.188 72.5998 206.609 72.7088C205.489 72.9198 204.603 73.3558 203.948 74.0188C203.294 74.6818 202.801 75.4638 202.472 76.3648C202.142 77.2668 201.887 78.1938 201.707 79.1468L194.461 77.2748C194.562 76.5368 194.8 75.5728 195.175 74.3828C195.551 73.1938 196.166 71.9588 197.025 70.6778C197.883 69.3978 199.043 68.2398 200.507 67.2048C201.97 66.1708 203.821 65.4418 206.06 65.0198C208.26 64.6058 210.308 64.6098 212.207 65.0308C214.104 65.4528 215.722 66.3468 217.058 67.7138C218.395 69.0808 219.303 71.0378 219.782 73.5848C220.182 75.7078 220.216 77.4798 219.884 78.9008C219.552 80.3228 219.047 81.5668 218.369 82.6328C217.69 83.6998 217.01 84.7578 216.329 85.8048C215.796 86.5848 215.306 87.4268 214.856 88.3308C214.406 89.2348 214.107 90.2398 213.956 91.3478C213.805 92.4548 213.867 93.7428 214.144 95.2088L214.373 96.4238L206.267 97.9508ZM212.62 109.403C211.231 109.665 210.021 109.503 208.992 108.918C207.962 108.332 207.332 107.423 207.099 106.187C206.874 104.991 207.138 103.902 207.892 102.92C208.646 101.939 209.698 101.321 211.05 101.066C212.4 100.812 213.587 101.008 214.608 101.655C215.629 102.302 216.252 103.224 216.478 104.42C216.711 105.656 216.473 106.729 215.766 107.641C215.057 108.555 214.009 109.141 212.62 109.403Z" fill="#55A3F3"/>
<path d="M271.968 97.709L272.526 95.472C272.878 94.065 273.347 92.934 273.935 92.079C274.522 91.224 275.174 90.528 275.892 89.989C276.609 89.451 277.316 88.985 278.012 88.59C278.947 88.077 279.797 87.549 280.56 87.007C281.323 86.465 281.844 85.632 282.125 84.506C282.28 83.888 282.256 83.328 282.052 82.828C281.848 82.329 281.557 81.905 281.181 81.557C280.804 81.209 280.405 80.982 279.983 80.877C279.167 80.673 278.436 80.693 277.793 80.936C277.15 81.179 276.579 81.552 276.08 82.055C275.58 82.558 275.123 83.102 274.708 83.686L270.425 80.194C270.72 79.73 271.177 79.156 271.796 78.474C272.415 77.792 273.209 77.153 274.18 76.558C275.15 75.964 276.285 75.545 277.587 75.302C278.888 75.059 280.355 75.141 281.987 75.549C283.591 75.95 284.964 76.584 286.108 77.453C287.251 78.321 288.06 79.42 288.535 80.75C289.01 82.079 289.016 83.673 288.552 85.53C288.165 87.078 287.642 88.277 286.981 89.128C286.32 89.979 285.597 90.659 284.813 91.165C284.029 91.672 283.246 92.171 282.466 92.664C281.868 93.023 281.279 93.437 280.699 93.904C280.118 94.372 279.607 94.954 279.164 95.651C278.721 96.347 278.366 97.231 278.099 98.3L277.878 99.186L271.968 97.709ZM272.698 107.352C271.685 107.099 270.923 106.617 270.413 105.907C269.902 105.196 269.76 104.392 269.985 103.491C270.203 102.619 270.716 101.97 271.525 101.544C272.333 101.118 273.23 101.028 274.216 101.274C275.2 101.52 275.936 102.018 276.422 102.767C276.907 103.516 277.041 104.327 276.823 105.199C276.598 106.1 276.106 106.746 275.35 107.141C274.595 107.535 273.711 107.605 272.698 107.352Z" fill="#55A3F3"/>
<path d="M411.967 270.185L412.385 267.597C412.648 265.969 413.07 264.643 413.654 263.618C414.237 262.593 414.909 261.742 415.67 261.063C416.431 260.384 417.186 259.788 417.938 259.275C418.948 258.604 419.86 257.924 420.672 257.237C421.485 256.55 421.996 255.555 422.206 254.253C422.322 253.537 422.24 252.906 421.961 252.36C421.681 251.814 421.312 251.362 420.852 251.004C420.392 250.646 419.918 250.427 419.43 250.348C418.485 250.195 417.661 250.288 416.955 250.625C416.249 250.962 415.637 251.439 415.12 252.057C414.602 252.675 414.137 253.335 413.723 254.036L408.533 250.492C408.823 249.938 409.286 249.244 409.921 248.411C410.557 247.579 411.395 246.779 412.438 246.012C413.48 245.246 414.726 244.662 416.178 244.261C417.628 243.861 419.298 243.813 421.186 244.118C423.041 244.418 424.658 245.005 426.037 245.878C427.415 246.752 428.438 247.919 429.104 249.38C429.77 250.84 429.93 252.645 429.583 254.793C429.294 256.584 428.816 257.993 428.149 259.021C427.482 260.049 426.728 260.888 425.889 261.537C425.049 262.187 424.21 262.828 423.374 263.461C422.731 263.926 422.103 264.45 421.491 265.036C420.878 265.622 420.355 266.33 419.92 267.162C419.485 267.994 419.168 269.028 418.968 270.265L418.802 271.29L411.967 270.185ZM413.722 281.04C412.55 280.851 411.641 280.378 410.995 279.623C410.348 278.867 410.11 277.969 410.278 276.927C410.441 275.918 410.96 275.133 411.836 274.573C412.711 274.013 413.718 273.825 414.858 274.009C415.997 274.193 416.878 274.686 417.5 275.488C418.122 276.29 418.351 277.196 418.189 278.205C418.021 279.247 417.527 280.027 416.709 280.546C415.889 281.065 414.894 281.23 413.722 281.04Z" fill="#55A3F3"/>
<path d="M40.0586 218.941L39.9906 216.353C39.9476 214.725 40.1146 213.361 40.4926 212.26C40.8706 211.159 41.3666 210.209 41.9806 209.411C42.5946 208.613 43.2186 207.896 43.8536 207.26C44.7116 206.423 45.4706 205.597 46.1336 204.781C46.7966 203.966 47.1106 202.907 47.0756 201.604C47.0566 200.888 46.8616 200.29 46.4906 199.812C46.1196 199.333 45.6776 198.962 45.1666 198.699C44.6546 198.436 44.1546 198.31 43.6666 198.323C42.7216 198.348 41.9386 198.588 41.3156 199.045C40.6926 199.501 40.1856 200.077 39.7976 200.771C39.4086 201.465 39.0776 202.191 38.8046 202.947L33.1196 200.459C33.2996 199.868 33.6216 199.11 34.0856 198.186C34.5496 197.262 35.2166 196.332 36.0886 195.397C36.9596 194.462 38.0616 193.667 39.3966 193.013C40.7306 192.359 42.3426 192.007 44.2306 191.957C46.0856 191.908 47.7626 192.181 49.2606 192.777C50.7586 193.373 51.9646 194.318 52.8786 195.613C53.7926 196.908 54.2776 198.63 54.3346 200.778C54.3816 202.569 54.1756 204.024 53.7166 205.143C53.2576 206.263 52.6796 207.215 51.9846 207.998C51.2886 208.782 50.5916 209.558 49.8966 210.325C49.3576 210.894 48.8446 211.518 48.3576 212.198C47.8706 212.879 47.4926 213.662 47.2226 214.549C46.9526 215.436 46.8346 216.498 46.8676 217.735L46.8946 218.76L40.0586 218.941ZM43.7496 229.153C42.5776 229.184 41.6086 228.892 40.8436 228.277C40.0776 227.662 39.6816 226.834 39.6536 225.792C39.6266 224.783 39.9866 223.926 40.7336 223.222C41.4796 222.518 42.4226 222.151 43.5626 222.121C44.7016 222.091 45.6466 222.408 46.3976 223.072C47.1476 223.736 47.5366 224.573 47.5636 225.582C47.5916 226.624 47.2546 227.471 46.5556 228.125C45.8566 228.78 44.9206 229.122 43.7496 229.153Z" fill="#55A3F3"/>
</g>
<path d="M248.573 497.719H285.082L283.798 422.713C278.907 420.043 273.831 417.717 268.615 415.759L248.573 497.719Z" fill="#FF8775"/>
<path d="M268.615 415.759C273.832 417.717 278.908 420.043 283.798 422.713L282.694 358.182L268.615 415.759Z" fill="#55A3F3"/>
<path d="M382.623 318.848C379.993 317.01 378.26 315.687 377.851 315.023C375.286 310.855 375.967 268.417 375.967 268.417L333.038 296.788L332.629 317.253C332.629 317.253 328.15 319.192 321.85 322.577L338.922 362.685L382.623 318.848Z" fill="#FF8775"/>
<path d="M437.819 370.87C435.411 352.635 396.494 328.542 382.624 318.848L338.922 362.684L321.85 322.576C308.721 329.63 287.673 342.971 282.695 358.182C275.327 380.693 277.606 497.719 277.606 497.719H423.903C423.903 497.719 425.54 462.553 425.54 447.409C425.54 432.265 440.684 392.563 437.819 370.87Z" fill="#55A3F3"/>
<g opacity="0.3">
<mask id="mask0_18_314" style="mask-type:luminance" maskUnits="userSpaceOnUse" x="277" y="318" width="162" height="180">
<path d="M437.819 370.87C435.411 352.635 396.494 328.542 382.624 318.848L338.922 362.684L321.85 322.576C308.721 329.63 287.673 342.971 282.695 358.182C275.327 380.693 277.606 497.719 277.606 497.719H423.903C423.903 497.719 425.54 462.553 425.54 447.409C425.54 432.265 440.684 392.563 437.819 370.87Z" fill="white"/>
</mask>
<g mask="url(#mask0_18_314)">
<path d="M417.04 299.279V536.894" stroke="#2C54AC" stroke-width="0.9738" stroke-miterlimit="10"/>
<path d="M388.281 299.279V536.894" stroke="#2C54AC" stroke-width="0.9738" stroke-miterlimit="10"/>
<path d="M359.523 299.279V536.894" stroke="#2C54AC" stroke-width="0.9738" stroke-miterlimit="10"/>
<path d="M330.766 299.279V536.894" stroke="#2C54AC" stroke-width="0.9738" stroke-miterlimit="10"/>
<path d="M302.008 299.279V536.894" stroke="#2C54AC" stroke-width="0.9738" stroke-miterlimit="10"/>
<path d="M264.275 340.235H439.805" stroke="#2C54AC" stroke-width="0.9738" stroke-miterlimit="10"/>
<path d="M264.275 361.055H439.805" stroke="#2C54AC" stroke-width="0.9738" stroke-miterlimit="10"/>
<path d="M264.275 381.874H439.805" stroke="#2C54AC" stroke-width="0.9738" stroke-miterlimit="10"/>
<path d="M264.275 402.693H439.805" stroke="#2C54AC" stroke-width="0.9738" stroke-miterlimit="10"/>
<path d="M264.275 423.512H439.805" stroke="#2C54AC" stroke-width="0.9738" stroke-miterlimit="10"/>
<path d="M264.275 444.332H439.805" stroke="#2C54AC" stroke-width="0.9738" stroke-miterlimit="10"/>
<path d="M264.275 465.151H439.805" stroke="#2C54AC" stroke-width="0.9738" stroke-miterlimit="10"/>
<path d="M264.275 485.97H439.805" stroke="#2C54AC" stroke-width="0.9738" stroke-miterlimit="10"/>
</g>
</g>
<path d="M373.935 259.2C373.453 256.928 373.567 254.576 373.755 252.261C374.492 243.146 376.237 234.873 379.1 226.187C374.87 226.124 370.702 224.183 367.93 220.986C365.159 217.789 364.372 213.068 364.909 208.872C362.915 212.07 359.401 214.274 355.654 214.676C354.739 214.774 353.796 214.768 352.92 214.489C350.51 213.721 349.152 211.015 349.138 208.486C349.124 205.957 350.098 203.416 351.114 201.099C345.1 208.198 334.938 210.056 325.634 210.144C320.396 210.193 315.096 209.818 310.107 208.224C307.359 207.346 304.715 206.058 302.373 204.38C301.841 206.016 301.349 207.707 300.934 209.503C294.541 237.149 301.696 277.982 305.575 296.289C306.807 302.105 311.861 306.335 317.804 306.486C324.326 306.651 332.725 306.279 338.894 303.946C353.211 298.531 367.874 289.306 380.289 269.092C377.255 266.336 374.773 263.149 373.935 259.2Z" fill="#FF8775"/>
<path d="M365.648 174.974C343.903 170.625 312.664 172.709 302.372 204.381C304.714 206.059 307.358 207.347 310.106 208.225C315.095 209.819 320.396 210.194 325.633 210.145C334.936 210.057 345.099 208.2 351.113 201.1C350.097 203.416 349.123 205.957 349.137 208.487C349.151 211.016 350.509 213.722 352.919 214.49C353.796 214.769 354.738 214.775 355.653 214.677C359.401 214.275 362.914 212.071 364.908 208.873C364.371 213.07 365.157 217.791 367.929 220.987C370.7 224.184 374.868 226.125 379.099 226.188C376.236 234.873 374.491 243.147 373.754 252.262C373.567 254.577 373.452 256.929 373.934 259.201C374.772 263.149 377.254 266.337 380.287 269.093C384.459 262.3 388.378 254.269 391.945 244.72C406.123 206.76 388.515 179.547 365.648 174.974Z" fill="#0A2A6B"/>
<path d="M396.569 254.588C395.02 260.249 391.216 265.653 386.396 269.041C384.887 270.102 383.242 270.987 381.593 271.22C377.873 271.744 375.021 268.689 374.45 264.949C373.879 261.209 375.132 257.001 376.798 253.115C378.952 248.09 382.466 242.735 387.278 241.257C395.037 238.873 398.488 247.576 396.569 254.588Z" fill="#FF8775"/>
<path d="M377.971 266.628C379.656 265.994 381.27 264.869 382.573 263.423C382.835 263.132 383.094 262.811 383.201 262.446C383.406 261.748 382.999 261.169 382.612 260.704C381.831 259.764 381.05 258.825 380.268 257.885C380.112 257.697 379.951 257.497 379.92 257.23C379.885 256.935 380.014 256.612 380.14 256.308C381.737 252.442 383.57 248.267 386.909 245.833C387.811 245.176 388.82 244.668 389.81 244.584C391.279 244.459 392.518 245.294 393.28 246.454C394.042 247.614 394.398 249.072 394.716 250.519C394.716 250.519 394.315 258.602 388.404 263.836C382.493 269.071 377.971 266.628 377.971 266.628Z" fill="#FF8775"/>
<path d="M394.716 250.52C394.209 249.01 393.748 247.411 392.717 246.307C392.22 245.76 391.594 245.346 390.925 245.189C390.255 245.03 389.574 245.111 388.912 245.39C387.602 245.97 386.405 247.004 385.436 248.161C384.444 249.317 383.622 250.639 382.909 252.027C382.171 253.405 381.541 254.856 380.909 256.321C380.739 256.69 380.587 257.061 380.603 257.144C380.6 257.169 380.601 257.208 380.686 257.329L381.038 257.777C381.539 258.402 382.031 259.034 382.518 259.671C382.766 259.999 382.998 260.28 383.265 260.655C383.517 261.021 383.774 261.509 383.75 262.078C383.728 262.647 383.423 263.113 383.136 263.432C382.841 263.759 382.55 264.029 382.236 264.305C380.972 265.359 379.535 266.219 377.971 266.629C379.405 265.901 380.688 264.949 381.721 263.774C382.225 263.205 382.836 262.555 382.761 262.075C382.75 261.591 382.148 261.037 381.613 260.424C381.076 259.829 380.544 259.23 380.022 258.623L379.611 258.143C379.453 257.949 379.257 257.618 379.232 257.239C379.216 256.507 379.474 256.144 379.59 255.774C380.187 254.281 380.822 252.786 381.574 251.327C383.106 248.474 385.184 245.563 388.51 244.288C389.343 244.004 390.34 243.929 391.209 244.246C392.078 244.553 392.789 245.148 393.29 245.846C394.258 247.294 394.527 248.934 394.716 250.52Z" fill="#0A2A6B"/>
<path d="M332.869 305.191C332.869 305.191 344.141 302.401 349.825 298.565C362.243 290.185 368.367 280.719 368.367 280.719C368.367 280.719 361.691 296.287 352.235 303.459C342.779 310.631 332.698 313.733 332.698 313.733L332.869 305.191Z" fill="#0A2A6B"/>
<path d="M312.228 242.45C312.228 244.951 311.004 246.978 309.494 246.978C307.984 246.978 306.76 244.951 306.76 242.45C306.76 239.949 307.984 237.922 309.494 237.922C311.004 237.922 312.228 239.949 312.228 242.45Z" fill="#0A2A6B"/>
<path d="M344.232 249.039C344.232 251.54 343.008 253.567 341.498 253.567C339.988 253.567 338.764 251.54 338.764 249.039C338.764 246.538 339.988 244.511 341.498 244.511C343.008 244.511 344.232 246.539 344.232 249.039Z" fill="#0A2A6B"/>
<path d="M325.038 240.98C323.655 243.181 322.393 245.417 321.289 247.718C320.187 250.018 319.238 252.377 318.459 254.786C317.667 257.192 317.08 259.654 316.628 262.14C316.202 264.63 315.93 267.15 315.863 269.686L315.303 268.911C318.874 270.279 322.6 271.256 326.443 271.988C322.529 272.166 318.571 271.596 314.775 270.473L314.239 270.315L314.214 269.699C314.109 267.068 314.258 264.42 314.687 261.816C315.09 259.207 315.793 256.648 316.7 254.175C317.62 251.705 318.78 249.328 320.172 247.104C321.565 244.88 323.183 242.803 325.038 240.98Z" fill="#0A2A6B"/>
<path d="M321.362 220.049C312.293 220.011 303.561 225.468 299.76 233.702C304.73 228.003 312.958 225.367 320.315 227.116C320.804 224.877 321.158 222.331 321.362 220.049Z" fill="#0A2A6B"/>
<path d="M355.366 239.229C353.392 235.899 350.171 233.442 346.664 231.804C343.157 230.166 339.349 229.283 335.552 228.529C336.095 226.263 336.448 224.099 337.112 221.865C345.131 224.944 352.51 231.129 355.366 239.229Z" fill="#0A2A6B"/>
<path d="M319.709 283.235C316.232 282.618 313.22 283.205 312.982 284.546C312.786 285.653 314.543 286.926 317.118 287.685C319.231 286.07 321.864 285.132 324.522 285.066C323.473 284.287 321.739 283.595 319.709 283.235Z" fill="#0A2A6B"/>
<path d="M324.523 285.066C321.865 285.132 319.232 286.07 317.119 287.685C317.663 287.845 318.242 287.984 318.848 288.092C322.325 288.709 325.337 288.122 325.575 286.781C325.674 286.222 325.271 285.622 324.523 285.066Z" fill="#FF4648"/>
<path d="M368.368 405.651L355.842 422.324L277.38 359.801C277.38 359.801 256.138 352.58 250.181 347.22C244.224 341.859 231.12 314.26 225.759 315.551C220.398 316.841 216.824 334.711 220.1 346.625C223.376 358.538 228.439 368.367 233.8 371.345C239.161 374.323 276.986 382.067 276.986 382.067C276.986 382.067 317.193 432.996 327.617 444.016C338.041 455.036 374.079 485.415 374.079 485.415L409.521 447.888C409.521 447.888 398.799 432.401 387.779 421.381C376.76 410.36 368.368 405.651 368.368 405.651Z" fill="#FF8775"/>
<path d="M362.052 414.059C365.258 408.309 368.613 402.649 372.115 397.082C375.596 391.5 379.21 386.004 382.943 380.579C384.839 377.885 386.738 375.195 388.755 372.571C390.763 369.949 392.952 367.383 395.391 365.129C400.223 360.565 405.658 356.709 411.46 353.594C408.77 355.491 406.152 357.466 403.661 359.592C401.155 361.694 398.752 363.905 396.49 366.238C395.362 367.407 394.283 368.619 393.238 369.853C392.21 371.103 391.225 372.384 390.268 373.712C388.325 376.333 386.446 379.021 384.586 381.72L373.414 397.938C369.696 403.351 365.91 408.725 362.052 414.059Z" fill="#0A2A6B"/>
<path d="M426.518 426.704C424.712 429.483 422.756 432.135 420.746 434.742C418.746 437.357 416.657 439.897 414.55 442.422C412.415 444.923 410.261 447.407 408.017 449.817C405.783 452.235 403.495 454.606 401.055 456.85C402.859 454.069 404.814 451.417 406.824 448.81C408.824 446.195 410.914 443.656 413.022 441.132C415.159 438.633 417.313 436.148 419.557 433.739C421.793 431.321 424.08 428.949 426.518 426.704Z" fill="#0A2A6B"/>
<path d="M352.768 419.892C355.351 421.729 357.944 423.462 360.544 425.224C363.149 426.974 365.734 428.787 368.218 430.777C370.677 432.796 373.027 435.008 374.988 437.562C376.952 440.095 378.551 442.979 379.3 446.072C377.773 443.292 375.9 440.825 373.798 438.572C371.685 436.33 369.378 434.272 366.959 432.329C364.559 430.356 362.043 428.485 359.613 426.468C357.179 424.466 354.792 422.341 352.768 419.892Z" fill="#0A2A6B"/>
<path d="M218.979 333.976C219.293 333.546 219.881 333.401 220.398 333.483C220.932 333.559 221.395 333.89 221.754 334.274C222.461 335.071 222.935 336.007 223.411 336.935C224.334 338.811 224.991 340.793 225.748 342.711C227.267 346.553 228.932 350.335 230.861 353.982C231.829 355.804 232.775 357.641 234.101 359.097C235.41 360.553 237.173 361.518 239.056 362.207C242.88 363.51 246.979 364.284 251.035 364.703L250.417 365.853C249.362 364.592 247.77 363.789 246.141 362.957C245.325 362.538 244.487 362.094 243.683 361.548C242.881 360.99 242.149 360.336 241.507 359.604C240.238 358.132 239.293 356.389 238.788 354.52C238.26 352.658 238.178 350.67 238.549 348.759L238.673 348.124L239.309 348.205C241.346 348.464 243.285 349.144 245.087 350.002C246.889 350.869 248.569 351.905 250.234 352.921C251.902 353.934 253.532 354.973 255.251 355.813C256.956 356.685 258.765 357.247 260.655 357.772C262.531 358.293 264.458 358.911 266.199 359.9C267.954 360.857 269.511 362.132 270.86 363.577C273.575 366.462 275.485 370.009 276.626 373.737C275.237 370.099 273.214 366.676 270.437 363.993C269.058 362.651 267.505 361.496 265.811 360.619C264.124 359.723 262.291 359.187 260.397 358.717C258.515 358.252 256.562 357.705 254.76 356.845C252.953 356.009 251.238 355.025 249.571 354.014C246.252 352.012 242.87 350.009 239.149 349.581L239.91 349.028C239.601 350.711 239.684 352.474 240.171 354.128C240.633 355.788 241.495 357.333 242.623 358.618C243.198 359.253 243.834 359.825 244.527 360.323C245.232 360.811 246.009 361.236 246.815 361.659C248.406 362.503 250.192 363.372 251.505 364.954L252.624 366.302L250.887 366.104C246.713 365.628 242.615 364.825 238.604 363.42C236.618 362.685 234.632 361.579 233.21 359.882C231.784 358.216 230.877 356.29 229.953 354.439C228.129 350.697 226.489 346.862 225.162 342.922C224.487 340.954 223.925 338.962 223.101 337.076C222.681 336.144 222.231 335.197 221.612 334.396C221.292 334.01 220.881 333.675 220.381 333.573C219.896 333.469 219.319 333.568 218.979 333.976Z" fill="#0A2A6B"/>
<path d="M221.465 321.367C223.004 321.99 223.956 323.482 224.628 324.91C225.295 326.377 225.856 327.849 226.463 329.32L230.003 338.162C231.237 341.101 232.293 344.071 233.779 346.733C234.575 348.092 235.372 349.444 236.254 350.73C237.164 351.983 238.098 353.271 239.451 354.068L239.395 354.207C237.819 353.699 236.601 352.488 235.522 351.309C234.43 350.108 233.491 348.797 232.596 347.471C230.713 344.723 229.842 341.577 228.822 338.598L225.738 329.587C225.217 328.092 224.756 326.556 224.201 325.094C223.636 323.66 222.837 322.199 221.404 321.502L221.465 321.367Z" fill="#0A2A6B"/>
<path d="M226.532 316.403C228.929 319.072 230.457 322.394 231.801 325.676C233.11 328.992 234.381 332.274 236.133 335.326C237.853 338.395 239.927 341.237 241.953 344.113C243.993 346.998 246.029 349.833 248.617 352.281L248.527 352.401C246.969 351.505 245.574 350.33 244.297 349.06C243.009 347.793 241.864 346.409 240.75 345.011C238.528 342.2 236.681 339.095 235.073 335.889C233.416 332.697 232.255 329.279 231.098 325.942C229.945 322.607 228.639 319.279 226.417 316.501L226.532 316.403Z" fill="#0A2A6B"/>
<path d="M278.736 390.448L278.664 402.327L278.494 414.2C278.387 422.115 278.175 430.026 278.121 437.937C277.937 445.846 277.943 453.753 277.92 461.668C277.895 465.625 277.898 469.581 277.924 473.538C277.904 477.496 277.951 481.453 278.002 485.413C277.612 481.469 277.418 477.512 277.189 473.557C277.014 469.6 276.882 465.641 276.766 461.681C276.55 453.764 276.556 445.836 276.622 437.914C276.801 429.994 276.991 422.077 277.345 414.165L277.932 402.301C278.193 398.35 278.41 394.396 278.736 390.448Z" fill="#0A2A6B"/>
<path d="M388.201 322.66L382.622 318.848L338.92 362.684L321.849 322.576L315.719 326.024L336.293 376.774L388.201 322.66Z" fill="#0A2A6B"/>
<g opacity="0.4">
<path d="M305.589 198.286C307.791 198.318 309.991 198.315 312.186 198.205C314.38 198.084 316.57 197.906 318.747 197.63C323.103 197.103 327.41 196.21 331.621 195.01C335.838 193.834 339.961 192.303 343.921 190.458C347.848 188.584 351.635 186.299 354.563 183.102L356.18 181.337L355.336 183.572C354.848 184.865 354.456 186.192 354.516 187.508C354.571 188.796 355.128 190.117 356.179 190.792C357.229 191.486 358.645 191.488 359.964 191.208C361.294 190.921 362.614 190.404 363.896 189.871C366.465 188.777 368.845 187.263 371.027 185.507C373.199 183.733 375.103 181.632 376.718 179.318C373.775 184.136 369.347 188.08 364.161 190.463C362.856 191.043 361.549 191.599 360.127 191.946C358.738 192.268 357.087 192.38 355.718 191.506C354.356 190.632 353.712 189.047 353.631 187.552C353.553 186.031 353.983 184.588 354.473 183.251L355.246 183.721C352.22 187.057 348.357 189.492 344.333 191.334C340.297 193.173 336.124 194.683 331.85 195.837C327.579 196.997 323.203 197.747 318.808 198.179C314.41 198.601 309.98 198.627 305.589 198.286Z" fill="#55A3F3"/>
<path d="M380.314 181.135C378.611 185.065 377.005 189.059 376.205 193.227C375.407 197.365 375.397 201.723 376.799 205.675C377.45 207.659 378.496 209.492 379.827 211.102C381.17 212.708 382.804 214.053 384.564 215.211C386.334 216.356 388.264 217.267 390.275 217.948C392.274 218.66 394.373 219.173 396.523 219.067C394.386 219.402 392.199 218.98 390.128 218.416C388.05 217.818 386.038 216.968 384.159 215.865C380.407 213.679 377.276 210.196 375.855 206.001C374.46 201.815 374.475 197.284 375.456 193.069C375.953 190.958 376.646 188.905 377.471 186.917C378.327 184.94 379.268 183.008 380.314 181.135Z" fill="#55A3F3"/>
<path d="M386.793 187.8C386.445 188.848 386.146 189.9 385.985 190.976C385.793 192.043 385.698 193.123 385.717 194.198C385.752 196.342 386.148 198.476 387.015 200.413C387.86 202.354 389.185 204.078 390.797 205.478C391.604 206.18 392.501 206.783 393.465 207.269C394.417 207.786 395.45 208.146 396.52 208.415C395.414 208.37 394.319 208.098 393.265 207.716C392.221 207.303 391.232 206.746 390.318 206.079C388.491 204.741 387.031 202.899 386.101 200.816C385.192 198.726 384.801 196.426 384.952 194.178C385.089 191.931 385.702 189.724 386.793 187.8Z" fill="#55A3F3"/>
<path d="M351.624 173.642C351.132 174.221 350.629 174.798 350.117 175.368L348.457 176.96L346.65 178.389L344.733 179.677C342.111 181.302 339.21 182.47 336.212 183.213C333.208 183.933 330.096 184.23 327.02 183.994L324.725 183.731L322.462 183.294L320.257 182.643C319.54 182.372 318.829 182.091 318.125 181.802C318.867 181.989 319.6 182.183 320.328 182.388L322.559 182.813L324.802 183.103L327.056 183.224C330.061 183.274 333.065 182.96 335.975 182.24C338.89 181.542 341.703 180.439 344.349 179.012C346.99 177.577 349.434 175.762 351.624 173.642Z" fill="#55A3F3"/>
</g>
<path d="M224.4 451.13L202.945 374.964L185.185 445.218L188.022 455.455C200.209 457.59 213.051 456.059 224.4 451.13Z" fill="#0A2A6B"/>
<path d="M237.523 497.719L224.4 451.13C213.051 456.059 200.209 457.591 188.022 455.456L199.734 497.719H237.523Z" fill="#FF8775"/>
<path d="M149.847 347.263L112.087 333.811C112.087 333.811 57.7996 363.576 52.6126 388.711C47.4266 413.846 68.9706 497.719 68.9706 497.719H215.39C215.39 497.719 193.447 449.648 193.447 437.93C193.447 426.213 209.405 383.104 202.224 373.739C195.043 364.374 149.608 339.238 149.608 339.238L149.847 347.263Z" fill="#0A2A6B"/>
<path d="M149.847 347.263C135.986 349.802 121.284 344.489 112.087 333.811C113.645 326.37 114.333 318.748 114.134 311.149C114.041 307.591 113.743 303.988 112.534 300.64C111.712 298.363 110.487 296.256 109.269 294.163C105.877 288.336 102.485 282.509 99.0926 276.682C97.2506 273.517 95.3856 270.3 94.4866 266.75C92.7026 259.71 94.9206 252.286 97.8236 245.629C103.447 232.738 112.138 220.676 124.456 213.889C136.774 207.102 153.096 206.567 164.354 214.995C168.769 218.3 174.673 221.456 175.872 226.84C178.713 239.598 181.561 252.397 182.76 265.413C183.959 278.428 183.47 291.742 179.734 304.267C178.048 309.919 175.53 315.621 170.891 319.264C167.757 321.725 163.882 323.058 159.994 323.933C156.632 324.689 153.087 325.128 149.767 324.207C149.455 331.526 149.525 339.944 149.847 347.263Z" fill="#FF8775"/>
<path d="M89.5256 225.821C85.8306 227.699 82.7856 230.688 80.3606 234.051C71.0946 246.902 71.1156 265.054 78.2466 279.203C85.3766 293.351 99.5066 306.403 114.158 312.432C114.201 305.322 113.327 295.982 111.468 289.119C115.283 288.189 118.793 286.051 121.369 283.088C117.567 268.545 113.641 254.246 109.84 239.703C118.384 241.807 127.734 240.256 135.897 236.97C144.059 233.684 151.315 228.452 157.862 222.574C159.169 226.277 162.19 229.159 165.671 230.976C169.152 232.793 173.117 233.527 177.042 233.641C177.486 235.933 177.883 238.211 178.327 240.503C185.19 236.21 191.278 228.542 190.361 220.499C190.121 218.398 189.453 216.364 188.608 214.426C185.488 207.269 179.832 201.249 172.883 197.689C168.753 195.574 164.234 194.322 159.686 193.4C144.541 190.33 128.685 190.827 113.762 194.84C109.042 196.109 104.345 197.759 100.348 200.573C92.5316 206.073 88.3086 216.341 89.5256 225.821Z" fill="#0A2A6B"/>
<path d="M95.9317 285.385C97.4807 291.046 101.285 296.45 106.105 299.838C107.614 300.899 109.259 301.784 110.908 302.017C114.628 302.542 117.48 299.486 118.051 295.746C118.622 292.006 117.369 287.798 115.703 283.911C113.549 278.886 110.035 273.531 105.223 272.053C97.4637 269.671 94.0127 278.374 95.9317 285.385Z" fill="#FF8775"/>
<path d="M114.53 297.426C112.845 296.792 111.231 295.667 109.928 294.221C109.666 293.93 109.407 293.609 109.3 293.244C109.095 292.546 109.502 291.967 109.889 291.502C110.67 290.562 111.451 289.623 112.233 288.683C112.389 288.495 112.55 288.296 112.581 288.028C112.615 287.733 112.487 287.41 112.361 287.106C110.764 283.24 108.931 279.065 105.592 276.632C104.69 275.975 103.681 275.467 102.691 275.383C101.222 275.258 99.9827 276.093 99.2207 277.253C98.4587 278.413 98.1017 279.871 97.7847 281.318C97.7847 281.318 98.1857 289.401 104.097 294.635C110.008 299.868 114.53 297.426 114.53 297.426Z" fill="#FF8775"/>
<path d="M97.7847 281.318C97.9737 279.732 98.2427 278.092 99.2107 276.644C99.7117 275.946 100.423 275.351 101.292 275.044C102.161 274.727 103.158 274.802 103.991 275.086C107.317 276.36 109.396 279.272 110.927 282.125C111.68 283.583 112.315 285.079 112.912 286.572C113.028 286.941 113.287 287.305 113.27 288.036C113.245 288.416 113.048 288.746 112.891 288.94L112.48 289.42C111.958 290.027 111.425 290.626 110.889 291.221C110.354 291.834 109.752 292.388 109.741 292.872C109.666 293.352 110.277 294.002 110.781 294.571C111.813 295.746 113.097 296.699 114.531 297.426C112.967 297.016 111.53 296.156 110.266 295.102C109.952 294.826 109.661 294.556 109.366 294.229C109.079 293.911 108.774 293.445 108.752 292.875C108.728 292.306 108.985 291.818 109.237 291.452C109.504 291.077 109.736 290.796 109.984 290.468C110.471 289.832 110.963 289.199 111.464 288.574L111.815 288.126C111.9 288.005 111.901 287.966 111.898 287.941C111.914 287.858 111.762 287.487 111.593 287.118C110.961 285.654 110.331 284.202 109.593 282.824C108.88 281.436 108.058 280.114 107.066 278.958C106.097 277.8 104.9 276.767 103.59 276.186C102.929 275.907 102.248 275.826 101.577 275.985C100.908 276.142 100.281 276.556 99.7847 277.103C98.7527 278.208 98.2917 279.808 97.7847 281.318Z" fill="#0A2A6B"/>
<path d="M161.852 253.986C162.616 256.436 163.257 258.909 163.863 261.389C164.463 263.869 165.006 266.36 165.519 268.856L166.247 272.597C166.502 273.807 166.771 274.942 167.349 275.844C167.92 276.758 168.789 277.509 169.781 278.157C170.78 278.802 171.909 279.317 173.052 279.863L173.8 280.22L173.467 280.9C171.887 284.13 169.13 286.583 166.066 288.06C167.366 286.952 168.585 285.786 169.599 284.477C170.629 283.185 171.452 281.762 172.042 280.267L172.457 281.304C171.249 280.877 170.025 280.388 168.84 279.717C167.657 279.057 166.506 278.141 165.704 276.897C164.884 275.649 164.536 274.25 164.308 272.973L163.662 269.196C163.263 266.679 162.892 264.157 162.58 261.624C162.272 259.088 162.001 256.548 161.852 253.986Z" fill="#0A2A6B"/>
<path d="M148.83 267.124C148.83 269.625 147.606 271.652 146.096 271.652C144.586 271.652 143.362 269.625 143.362 267.124C143.362 264.623 144.586 262.596 146.096 262.596C147.606 262.596 148.83 264.623 148.83 267.124Z" fill="#0A2A6B"/>
<path d="M177.544 263.607C177.544 266.108 176.32 268.135 174.81 268.135C173.3 268.135 172.076 266.108 172.076 263.607C172.076 261.106 173.3 259.079 174.81 259.079C176.32 259.079 177.544 261.107 177.544 263.607Z" fill="#0A2A6B"/>
<path d="M129.118 259.263C129.671 257.015 130.586 254.845 131.748 252.77C132.939 250.715 134.461 248.801 136.312 247.183C137.238 246.372 138.198 245.572 139.247 244.874C140.298 244.183 141.477 243.683 142.714 243.418C143.951 243.156 145.229 243.068 146.487 243.219C147.74 243.355 148.978 243.701 150.073 244.383L150.035 244.781L146.805 246.015C145.801 246.423 144.845 246.818 143.91 247.236C142.975 247.651 142.044 248.028 141.076 248.388C140.106 248.74 139.137 249.164 138.251 249.731C136.477 250.871 134.838 252.302 133.372 253.94C131.874 255.561 130.624 257.433 129.491 259.412L129.118 259.263Z" fill="#0A2A6B"/>
<path d="M181.038 253.041C179.784 251.523 178.395 250.188 176.814 249.153C175.262 248.094 173.591 247.262 171.872 246.646C171.01 246.339 170.101 246.16 169.201 246.017C168.302 245.867 167.435 245.661 166.569 245.379C164.829 244.795 163.083 244.229 161.075 243.247L161.048 242.848C162.968 241.615 165.177 241.313 167.305 241.448C169.473 241.545 171.395 242.712 173.222 243.745C175.07 244.788 176.741 246.109 178.139 247.655C179.51 249.221 180.658 250.958 181.384 252.842L181.038 253.041Z" fill="#0A2A6B"/>
<path d="M166.872 299.909C170.349 299.292 173.361 299.879 173.599 301.22C173.795 302.327 172.038 303.6 169.463 304.359C167.35 302.744 164.717 301.806 162.059 301.74C163.108 300.96 164.843 300.269 166.872 299.909Z" fill="#0A2A6B"/>
<path d="M162.059 301.739C164.717 301.805 167.35 302.743 169.463 304.358C168.919 304.518 168.34 304.657 167.734 304.764C164.257 305.381 161.245 304.794 161.007 303.453C160.908 302.895 161.31 302.295 162.059 301.739Z" fill="#FF4648"/>
<path d="M109.655 421.231L125.741 437.931C125.741 437.931 138.861 341.237 138.596 333.5C138.331 325.763 133.085 307.212 137.281 306.521C141.477 305.83 149.768 324.207 149.768 324.207C149.768 324.207 203.025 314.692 207.221 315.507C211.417 316.321 205.123 320.867 199.178 322.966C193.233 325.064 188.022 326.162 188.022 326.162C188.022 326.162 189.738 328.243 190.417 330.863C190.805 332.361 190.417 335.612 190.417 335.612C190.417 335.612 190.903 339.098 190.451 340.743C190.091 342.053 188.874 343.845 188.874 343.845C188.874 343.845 189.333 347.4 188.533 348.579C187.238 350.487 185.262 351.304 185.262 351.304C179.567 357.421 172.546 352.054 172.546 352.054L168.159 351.946L154.925 351.621C154.925 351.621 153.122 417.947 152.221 437.932C151.32 457.917 145.31 489.768 145.31 489.768L93.8477 459.419C93.8477 459.419 96.9327 445.296 101.44 434.78C105.948 424.262 109.655 421.231 109.655 421.231Z" fill="#FF8775"/>
<path d="M137.163 348.15C137.197 344.534 137.312 340.921 137.389 337.305C137.434 335.492 137.481 333.71 137.428 331.911C137.373 330.116 137.255 328.322 137.101 326.529C136.771 322.945 136.323 319.365 135.982 315.758C135.62 312.155 135.35 308.522 135.356 304.868L135.357 304.312L135.904 304.172C138.368 303.541 141.102 304.272 142.891 306.096C143.778 306.996 144.395 308.068 144.894 309.132C145.382 310.2 145.82 311.265 146.15 312.421C146.478 313.561 146.649 314.819 146.53 316.033C146.419 317.225 146.234 318.246 146.503 319.2C146.761 320.172 147.288 321.163 147.886 322.048C148.498 322.934 149.211 323.756 150.035 324.458L149.545 324.336L161.564 322.137C165.581 321.459 169.588 320.73 173.615 320.098C169.657 321.072 165.679 321.947 161.712 322.874L149.777 325.49L149.511 325.548L149.287 325.367C147.424 323.865 145.967 321.913 145.231 319.533C144.869 318.269 145.101 316.982 145.18 315.927C145.269 314.874 145.117 313.843 144.81 312.805C144.506 311.778 144.068 310.739 143.6 309.747C143.127 308.764 142.571 307.849 141.849 307.135C140.425 305.73 138.213 305.096 136.259 305.579L136.806 304.884C136.76 308.459 136.984 312.046 137.303 315.636L137.798 321.031C137.947 322.833 138.073 324.643 138.175 326.454C138.369 330.074 138.392 333.734 138.06 337.342C137.762 340.944 137.503 344.549 137.163 348.15Z" fill="#0A2A6B"/>
<path d="M188.023 326.162C186.742 326.763 185.43 327.22 184.106 327.626C182.784 328.041 181.443 328.37 180.099 328.683C178.749 328.968 177.394 329.235 176.021 329.417C174.65 329.608 173.267 329.747 171.852 329.74C173.132 329.137 174.445 328.68 175.769 328.274C177.091 327.86 178.432 327.53 179.776 327.219C181.127 326.935 182.481 326.669 183.855 326.487C185.225 326.296 186.608 326.157 188.023 326.162Z" fill="#0A2A6B"/>
<path d="M172.857 336.395C174.306 336.02 175.761 335.792 177.22 335.617C178.678 335.432 180.14 335.335 181.602 335.254C183.066 335.202 184.531 335.168 186 335.222C187.469 335.266 188.94 335.364 190.418 335.61C188.969 335.987 187.514 336.216 186.056 336.391C184.598 336.575 183.136 336.673 181.674 336.751C180.21 336.801 178.745 336.835 177.276 336.781C175.806 336.736 174.335 336.64 172.857 336.395Z" fill="#0A2A6B"/>
<path d="M173.614 343.487C174.861 343.081 176.143 342.872 177.426 342.753C178.71 342.625 179.997 342.622 181.278 342.658C182.558 342.722 183.833 342.826 185.098 343.023C186.364 343.211 187.622 343.458 188.874 343.844C187.584 344.081 186.301 344.16 185.026 344.191C183.75 344.232 182.482 344.192 181.218 344.155C179.955 344.09 178.695 344.03 177.433 343.918C176.171 343.817 174.907 343.699 173.614 343.487Z" fill="#0A2A6B"/>
<path d="M182.723 351.624C181.713 351.948 180.7 352.123 179.687 352.247C178.674 352.38 177.66 352.438 176.645 352.454C175.63 352.467 174.615 352.435 173.599 352.33C172.583 352.234 171.566 352.084 170.548 351.785C171.559 351.459 172.571 351.283 173.584 351.16C174.597 351.028 175.611 350.97 176.626 350.955C177.641 350.945 178.656 350.976 179.672 351.082C180.687 351.178 181.704 351.327 182.723 351.624Z" fill="#0A2A6B"/>
<path d="M125.554 435.144C125.644 436.87 125.61 438.572 125.548 440.27C125.495 441.968 125.377 443.658 125.264 445.348C125.123 447.036 124.987 448.724 124.785 450.411C124.593 452.099 124.37 453.787 124.02 455.48C123.745 453.773 123.643 452.063 123.616 450.354C123.58 448.644 123.654 446.938 123.769 445.235C123.912 443.534 124.095 441.836 124.388 440.151C124.671 438.467 125.028 436.791 125.554 435.144Z" fill="#0A2A6B"/>
<path d="M110.658 422.492C107.334 418.709 104.096 414.858 100.87 410.996C97.6426 407.135 94.4846 403.218 91.2886 399.332C88.1566 395.397 84.9876 391.504 81.5036 387.908C78.0266 384.318 74.1576 381.065 69.7366 378.641C72.0426 379.658 74.2086 380.985 76.2686 382.451C78.3106 383.945 80.2256 385.609 82.0466 387.363C85.6836 390.887 88.8726 394.818 92.0646 398.703C95.1956 402.642 98.3646 406.549 101.464 410.514C104.567 414.477 107.655 418.45 110.658 422.492Z" fill="#55A3F3"/>
<path d="M94.0346 458.679C93.6636 460.469 93.3056 462.258 93.0236 464.059C92.7466 465.861 92.4706 467.66 92.2826 469.47C92.0796 471.278 91.9676 473.094 91.8506 474.906C91.7456 476.72 91.6976 478.537 91.7086 480.353L91.7146 481.305L90.9516 480.723C88.9206 479.175 86.9286 477.573 85.0117 475.883C83.0866 474.203 81.2066 472.473 79.3776 470.689C75.7596 467.082 72.3507 463.262 69.3167 459.163C72.7167 462.96 76.2416 466.626 79.9656 470.077C81.8076 471.823 83.6996 473.517 85.6346 475.159C87.5786 476.79 89.5346 478.407 91.5266 479.981L90.7696 480.351C90.7846 478.515 90.8576 476.68 90.9886 474.85C91.1076 473.018 91.3476 471.197 91.6126 469.383C91.8926 467.571 92.1986 465.763 92.6176 463.98C93.0306 462.197 93.4826 460.423 94.0346 458.679Z" fill="#55A3F3"/>
<path d="M198.447 456.739L195.728 447.393L193.097 438.024L193.082 437.969L193.087 437.9C193.414 433.017 193.851 428.144 194.236 423.267C194.614 418.389 195.061 413.516 195.507 408.644L196.171 401.335L196.902 394.032C197.381 389.162 197.911 384.297 198.48 379.435C198.21 384.323 197.902 389.207 197.541 394.087L197.014 401.408L196.42 408.723C196.028 413.6 195.636 418.477 195.175 423.348C194.721 428.22 194.319 433.096 193.808 437.963L193.797 437.839L196.166 447.278L198.447 456.739Z" fill="#55A3F3"/>
<g opacity="0.47">
<path d="M89.9727 220.948C96.1747 222.781 102.683 222.822 109.089 222.888C115.51 222.885 121.934 222.344 128.204 221.059C134.471 219.78 140.566 217.616 146.097 214.428C148.855 212.83 151.498 211.024 153.905 208.936C156.307 206.844 158.492 204.503 160.375 201.937L161.089 200.964L161.179 202.161C161.431 205.502 162.585 208.736 164.266 211.645C165.959 214.557 168.206 217.148 170.784 219.339C175.942 223.7 182.867 225.974 189.692 225.437C182.901 226.243 175.755 224.193 170.4 219.801C167.734 217.618 165.386 215.016 163.586 212.049C161.779 209.093 160.588 205.719 160.293 202.234L161.097 202.458C157.281 207.745 152.229 212.069 146.59 215.29C140.937 218.503 134.727 220.661 128.379 221.917C125.206 222.566 121.99 222.981 118.766 223.209C115.542 223.448 112.311 223.525 109.085 223.467C105.859 223.41 102.637 223.25 99.4267 222.915C96.2197 222.569 93.0187 222.003 89.9727 220.948Z" fill="#55A3F3"/>
<path d="M189.475 217.27C188.156 217.273 186.838 217.054 185.548 216.729C184.265 216.373 183.021 215.873 181.831 215.264C179.448 214.041 177.338 212.311 175.573 210.297C173.826 208.267 172.41 205.967 171.362 203.527C170.839 202.306 170.385 201.06 170.001 199.795C169.649 198.52 169.328 197.24 169.125 195.938C169.548 197.185 169.96 198.429 170.464 199.635C170.936 200.852 171.462 202.045 172.057 203.199C173.243 205.506 174.631 207.704 176.327 209.642C178.003 211.59 179.997 213.261 182.202 214.595C184.415 215.917 186.878 216.845 189.475 217.27Z" fill="#55A3F3"/>
<path d="M152.853 192.549C151.451 194.658 149.629 196.479 147.622 198.042C145.593 199.584 143.374 200.862 141.084 201.967C136.484 204.148 131.616 205.695 126.652 206.809C124.157 207.316 121.631 207.657 119.093 207.869C116.552 208.033 113.998 208.064 111.459 207.844C108.923 207.59 106.411 207.146 103.956 206.484C101.524 205.74 99.1557 204.805 96.9307 203.602C99.2547 204.6 101.634 205.432 104.08 206.009C106.529 206.567 109.016 206.918 111.516 207.076C114.019 207.171 116.524 207.168 119.022 206.961C121.516 206.724 123.997 206.355 126.448 205.831C131.354 204.814 136.167 203.271 140.765 201.271C143.061 200.266 145.281 199.083 147.336 197.648C149.409 196.239 151.271 194.522 152.853 192.549Z" fill="#55A3F3"/>
<path d="M100.76 240.508C101.106 242.419 101.218 244.372 101.194 246.324C101.138 248.276 100.906 250.226 100.515 252.146C99.7206 255.987 98.1876 259.673 96.0976 263.004C93.9396 266.292 91.2236 269.217 88.0626 271.539C86.4786 272.694 84.8016 273.715 83.0506 274.578C81.2856 275.411 79.4626 276.122 77.5806 276.602C79.3926 275.907 81.1566 275.113 82.8236 274.144C84.5036 273.206 86.1036 272.131 87.5956 270.928C90.5866 268.536 93.2266 265.699 95.2586 262.464C97.3576 259.271 98.8366 255.689 99.7696 251.975C100.7 248.257 101.023 244.377 100.76 240.508Z" fill="#55A3F3"/>
<path d="M87.9005 235.195C87.2375 239.3 85.3935 243.212 82.8485 246.536C80.2865 249.847 76.9755 252.63 73.1755 254.318C76.5705 251.943 79.5815 249.158 82.0575 245.926C84.5505 242.708 86.4745 239.086 87.9005 235.195Z" fill="#55A3F3"/>
</g>
</svg>
